<?xml version="1.0" standalone="no"?>
<!DOCTYPE svg PUBLIC "-//W3C//DTD SVG 1.1//EN" "http://www.w3.org/Graphics/SVG/1.1/DTD/svg11.dtd" >
<svg xmlns="http://www.w3.org/2000/svg">
<metadata>
Created by FontPrep 20130207 at Thu Jul  3 17:15:29 2014
 By Luke White
Copyright (c) 2006 The Hoefler Type Foundry, Inc., dba Hoefler &#38; Frere-Jones. All Rights Reserved.
</metadata>
<defs>
<font id="5b3493a8800d1494f6fd0fc57113a28a" horiz-adv-x='1024' >
  <font-face 
    font-family="Vitesse-Light"
    font-weight="300"
    font-stretch="normal"
    units-per-em="2048"
    panose-1="0 0 0 0 0 0 0 0 0 0"
    ascent="1638"
    descent="-410"
    x-height="1087"
    cap-height="1434"
    bbox="-57 -582 2068 2136"
    underline-thickness="102"
    underline-position="-102"
    unicode-range="U+0020-2212"
  />
<missing-glyph horiz-adv-x="1019" 
d="M510 492l-367 -799h734zM920 1384l-353 -770l353 -770v1540zM100 -156l353 770l-353 770v-1540zM143 1536l367 -799l367 799h-734zM-2 -410v2048h1024v-2048h-1024z" />
    <glyph glyph-name="fi" unicode="fi" horiz-adv-x="1345" 
d="M635 1389h-129q-68 0 -98 -33t-31 -166v-103h239v-86h-237v-915h194v-86h-481v86h189v915h-189v86h189v103q0 178 53 231t158 54h143v-86zM1274 0h-475v86h190v915h-190v86h288v-1001h187v-86zM965 1319v170h127v-170h-127z" />
    <glyph glyph-name="fl" unicode="fl" horiz-adv-x="1327" 
d="M635 1389h-129q-68 0 -98 -33t-31 -166v-103h239v-86h-237v-915h194v-86h-481v86h189v915h-189v86h189v103q0 178 53 231t158 54h143v-86zM1255 0h-475v86h189v1300h-189v89h289v-1389h186v-86z" />
    <glyph glyph-name=".notdef" horiz-adv-x="1019" 
d="M510 492l-367 -799h734zM920 1384l-353 -770l353 -770v1540zM100 -156l353 770l-353 770v-1540zM143 1536l367 -799l367 799h-734zM-2 -410v2048h1024v-2048h-1024z" />
    <glyph glyph-name=".null" horiz-adv-x="0" 
 />
    <glyph glyph-name="nonmarkingreturn" horiz-adv-x="681" 
 />
    <glyph glyph-name="space" unicode=" " horiz-adv-x="495" 
 />
    <glyph glyph-name="exclam" unicode="!" horiz-adv-x="573" 
d="M223 154h127v-154h-127v154zM223 1434h129v-76l-35 -981h-49l-45 981v76z" />
    <glyph glyph-name="quotedbl" unicode="&#x22;" horiz-adv-x="692" 
d="M432 1434h146v-39l-46 -463h-55l-45 463v39zM115 1434h145v-39l-45 -463h-55l-45 463v39z" />
    <glyph glyph-name="numbersign" unicode="#" horiz-adv-x="1558" 
d="M606 967l-112 -467h458l113 467h-459zM229 1051h303l93 383h98l-92 -383h450l93 383h98l-92 -383h280v-88h-303l-110 -459h280v-88h-301l-100 -416h-99l101 416h-453l-98 -416h-98l100 416h-283v88h303l111 459h-281v88z" />
    <glyph glyph-name="dollar" unicode="$" horiz-adv-x="1368" 
d="M639 1343h-156q-96 0 -142 -46t-46 -238q0 -109 9 -151t40 -72q31 -31 152 -43l143 -15v565zM725 90h176q98 0 144 47q47 47 47 202t-10 199q-9 44 -38 70q-34 35 -155 47l-164 17v-582zM727 -184h-90v184h-188q-145 0 -203 59q-43 41 -59 108q-15 67 -15 251h102
q0 -154 10 -208t45 -87q34 -33 130 -33h180v590l-168 16q-158 14 -213 70q-37 35 -52 97t-16 194q0 231 84 315q61 61 201 62h162v163h90v-163h162q143 0 203 -60q43 -42 58 -108t17 -238h-102q-2 142 -12 196t-43 87t-127 32h-158v-573l190 -18q158 -14 211 -68
q36 -36 52 -102t16 -201t-19 -205t-71 -123t-193 -53h-184v-184z" />
    <glyph glyph-name="percent" unicode="%" horiz-adv-x="1734" 
d="M1569 362q-1 -146 -17 -212t-59 -108t-152 -42h-84q-104 0 -148 42t-60 108q-17 66 -17 212t17 213q16 66 60 108t148 42h84q109 0 152 -42t59 -109t17 -212zM1266 78h67q74 0 103 28q43 43 43 256t-43 256q-29 29 -103 29h-67q-72 0 -103 -29q-43 -43 -43 -256t43 -256
q31 -28 103 -28zM422 -6h-92l985 1446h92zM705 1071q-1 -145 -17 -212t-60 -109t-149 -41h-86q-104 0 -148 42q-45 41 -61 107t-16 213t16 213t60 108t149 42h86q104 0 156 -48q37 -38 53 -104t17 -211zM469 786q74 0 102 29q45 45 45 256t-45 256q-29 29 -102 29h-68
q-72 0 -100 -29q-45 -45 -45 -256t45 -256q29 -29 100 -29h68z" />
    <glyph glyph-name="ampersand" unicode="&#x26;" horiz-adv-x="1452" 
d="M543 86q55 0 86 16t63 64l123 182q-283 332 -334 387l-71 -12q-90 -10 -131 -53q-43 -53 -43 -218q0 -164 13 -226t52 -101t174 -39h68zM670 1434h94q154 0 203 -48t63 -120q14 -70 14 -219h-100q-2 217 -41 258t-143 41h-92q-106 0 -138 -33t-42 -86q-9 -53 -9 -171
t27 -174t78 -116l280 -328h15l241 381h211v-90h-157l-240 -367l237 -272h162v-90h-213l-235 272h-13l-106 -161q-43 -63 -89 -88t-122 -25h-96q-176 0 -244 68q-49 50 -64 124t-15 227t11 214q13 61 67 113t208 65h6q-51 83 -51 235t14 221t55 107q62 62 224 62z" />
    <glyph glyph-name="quotesingle" unicode="'" horiz-adv-x="376" 
d="M115 1434h145v-39l-45 -463h-55l-45 463v39z" />
    <glyph glyph-name="parenleft" unicode="(" horiz-adv-x="770" 
d="M205 563q0 305 14 393t75 192q60 103 206 306h82q-229 -360 -248 -475q-18 -92 -18 -416t18 -416q18 -115 248 -475h-82q-145 203 -206 306q-60 104 -74 192t-15 393z" />
    <glyph glyph-name="parenright" unicode=")" horiz-adv-x="770" 
d="M563 563q0 -293 -13 -387q-12 -94 -74 -198t-208 -306h-80q230 366 248 476t19 415q-1 305 -19 415t-248 476h80q144 -203 206 -306q62 -104 76 -198t13 -387z" />
    <glyph glyph-name="asterisk" unicode="*" horiz-adv-x="966" 
d="M702 1366l-157 -221l-41 22l112 248zM836 1135v-99l-273 27v45zM702 805l-86 -49l-112 248l41 22zM264 1366l86 49l113 -248l-41 -22zM131 1135l272 -27v-45l-272 -27v99zM264 805l158 221l41 -22l-113 -248z" />
    <glyph glyph-name="plus" unicode="+" horiz-adv-x="1060" 
d="M575 1139v-351h351v-90h-351v-350h-90v350h-350v90h350v351h90z" />
    <glyph glyph-name="comma" unicode="," horiz-adv-x="380" 
d="M109 170h161v-166q0 -70 -34 -115l-166 -221l-45 33l143 221q16 23 16 62v16h-75v170z" />
    <glyph glyph-name="hyphen" unicode="-" horiz-adv-x="837" 
d="M705 602h-572v98h572v-98z" />
    <glyph glyph-name="period" unicode="." horiz-adv-x="385" 
d="M119 170h149v-170h-149v170z" />
    <glyph glyph-name="slash" unicode="/" horiz-adv-x="929" 
d="M43 -328h-100l835 1782h101z" />
    <glyph glyph-name="zero" unicode="0" horiz-adv-x="1413" 
d="M537 92h340q127 0 172 49q41 39 58 152t17 424t-17 424t-58 151q-45 49 -172 49h-340q-125 0 -169 -44q-44 -45 -62 -157q-17 -112 -17 -423t17 -424t61 -157t170 -44zM881 1434q174 0 238 -64t88 -193q24 -128 24 -460t-24 -460q-25 -129 -89 -193t-237 -64h-351
q-172 0 -236 64t-88 193q-24 128 -24 460t24 460q24 129 88 193t236 64h351z" />
    <glyph glyph-name="one" unicode="1" horiz-adv-x="917" 
d="M557 90h272v-90h-667v90h295v1247l-285 -110l-31 86l308 123h108v-1346z" />
    <glyph glyph-name="two" unicode="2" horiz-adv-x="1351" 
d="M1157 1096q0 -115 -13 -168t-52 -97q-55 -57 -185 -110l-458 -184q-87 -35 -135 -83t-48 -210v-154h811v342h99v-432h-1010v236q0 127 15 186t59 100q49 51 174 105l460 184q88 37 134 85t45 204q0 156 -52 205q-43 37 -141 36h-371q-96 1 -129 -33t-43 -88t-12 -192
h-102q2 166 18 235t58 111q59 59 204 60h385q154 0 215 -62q41 -41 57 -101t17 -175z" />
    <glyph glyph-name="three" unicode="3" horiz-adv-x="1316" 
d="M842 1434q148 0 200 -52t71 -118t19 -204t-46 -210t-138 -102v-3q109 -25 153 -103t44 -238q-1 -162 -21 -232t-61 -111q-63 -61 -211 -61h-389q-156 0 -213 59q-49 47 -69 128q-19 81 -23 245h102q10 -246 64 -299q45 -41 151 -41h361q106 0 145 41q55 51 55 256
t-53 258t-162 53h-321v91h309q104 0 156 47q59 59 59 233t-55 229q-41 41 -148 41h-336q-111 0 -151 -41q-55 -55 -64 -276h-104q6 145 24 224t66 126q57 59 215 60h371z" />
    <glyph glyph-name="four" unicode="4" horiz-adv-x="1347" 
d="M874 510v840h-34l-625 -840h659zM975 1434v-924h252v-84h-252v-338h252v-88h-627v88h274v338h-774v43q0 39 27 78l618 831q43 55 89 56h141z" />
    <glyph glyph-name="five" unicode="5" horiz-adv-x="1327" 
d="M860 92q96 0 146 50t50 289t-52 289t-148 50h-266q-156 0 -301 -111l-105 35l49 740h895v-97h-798l-41 -577l12 -2q71 55 135 79t164 23h270q148 0 202 -54t72 -132t19 -242q0 -164 -18 -243q-43 -189 -273 -189h-436q-145 0 -203 59q-43 41 -58 106t-17 236h104
q0 -139 11 -191t44 -85t129 -33h414z" />
    <glyph glyph-name="six" unicode="6" horiz-adv-x="1384" 
d="M530 715q-104 0 -241 -78q2 -262 19 -359q16 -98 62 -142t167 -44h354q113 0 160 49q59 59 59 267q0 127 -11 178t-40 82q-51 47 -174 47h-355zM879 1341h-332q-125 0 -172 -47q-47 -48 -67 -162t-19 -415v-15q94 64 144 84t122 21h346q168 0 238 -70q43 -41 60 -109
t18 -220q0 -246 -89 -336q-72 -72 -235 -72h-369q-162 0 -233 72q-61 59 -85 185t-24 454q0 327 26 457t94 198t247 68h344q145 0 209 -62q43 -42 59 -108t19 -220h-103q-2 124 -13 176t-38 78q-43 43 -147 43z" />
    <glyph glyph-name="seven" unicode="7" horiz-adv-x="1269" 
d="M262 1346v-328h-100v416h999v-70l-655 -1364h-113l651 1346h-782z" />
    <glyph glyph-name="eight" unicode="8" horiz-adv-x="1374" 
d="M485 90h402q106 0 149 45q62 61 62 255t-64 257q-51 53 -168 53h-360q-113 0 -166 -53q-64 -59 -64 -253t60 -259q45 -45 149 -45zM291 1069q0 -170 57 -225t168 -56h342q111 0 164 54q61 57 61 227t-52 222t-157 52h-374q-105 0 -157 -52t-52 -222zM879 1434
q160 0 227 -68q86 -88 86 -295q0 -145 -47 -219t-137 -104v-3q100 -27 148 -109t48 -230q0 -150 -20 -220t-66 -116q-68 -70 -229 -70h-404q-162 0 -229 70q-46 46 -66 116t-20 220t48 231q48 82 147 108v3q-90 31 -137 104q-46 74 -46 219q0 207 86 295q68 68 228 68h383z
" />
    <glyph glyph-name="nine" unicode="9" horiz-adv-x="1384" 
d="M854 694q100 0 242 78q-2 274 -20 376t-62 148q-45 45 -166 45h-354q-113 0 -160 -49q-59 -59 -60 -276q0 -138 12 -190t42 -83q45 -49 174 -49h352zM481 92h357q125 0 172 47t66 160t20 408q-94 -63 -144 -83t-123 -22h-337q-174 0 -246 72q-42 42 -60 112t-18 228
q0 258 88 348q72 72 236 72h368q162 0 228 -66t91 -191q23 -126 23 -454t-26 -458q-26 -129 -92 -197q-68 -68 -248 -68h-367q-147 0 -201 52t-69 118q-17 66 -19 213h105q2 -121 13 -171t38 -77q41 -43 145 -43z" />
    <glyph glyph-name="colon" unicode=":" horiz-adv-x="393" 
d="M131 1087h150v-169h-150v169zM131 170h150v-170h-150v170z" />
    <glyph glyph-name="semicolon" unicode=";" horiz-adv-x="387" 
d="M111 170h159v-166q0 -72 -34 -115l-166 -221l-43 33l143 221q14 20 14 62v16h-73v170zM117 1087h149v-169h-149v169z" />
    <glyph glyph-name="less" unicode="&#x3c;" horiz-adv-x="1032" 
d="M872 1053l-622 -316l622 -313v-102l-720 370v88l720 371v-98z" />
    <glyph glyph-name="equal" unicode="=" horiz-adv-x="1060" 
d="M141 526v95h779v-95h-779zM141 866v95h779v-95h-779z" />
    <glyph glyph-name="greater" unicode="&#x3e;" horiz-adv-x="1032" 
d="M160 322v98l620 315l-620 316v100l721 -371v-88z" />
    <glyph glyph-name="question" unicode="?" horiz-adv-x="1175" 
d="M156 1024q0 174 14 242t64 118t186 50h328q137 0 198 -62q76 -76 76 -272q0 -117 -17 -182t-82 -109l-27 -18q-18 -13 -81 -40q-64 -26 -111 -47q-46 -20 -78 -52t-42 -83t-13 -174h-86v60q0 113 13 168q12 55 51 94t147 88q137 55 169 87t41 69t9 165t-45 172t-135 43
h-305q-88 0 -127 -36q-25 -25 -34 -80t-11 -201h-102zM465 154h127v-154h-127v154z" />
    <glyph glyph-name="at" unicode="@" horiz-adv-x="1925" 
d="M958 201q68 1 119 23t140 85v520q-85 63 -137 87t-119 24h-87q-98 0 -143 -41q-27 -27 -38 -93t-11 -237t11 -235t38 -90q47 -43 143 -43h84zM1303 369q1 -113 37 -153t127 -40t135 49q76 76 75 434q0 512 -121 633q-50 51 -118 74t-201 23h-526q-141 0 -210 -25
t-126 -84t-92 -218t-35 -499q0 -341 35 -499t92 -218t127 -84q70 -25 209 -24h833v-45h-833q-156 -1 -233 27t-136 87q-147 143 -147 753t147 759q59 59 136 87t233 28h528q151 0 225 -26t133 -83q133 -129 134 -666q0 -381 -93 -469q-61 -63 -170 -63h-28q-147 0 -211 133
q-97 -82 -151 -108t-132 -27h-78q-141 0 -191 51t-67 130q-16 79 -16 264q0 186 16 266t60 125q59 55 198 55h78q78 0 128 -26t147 -105l20 131h70l-8 -225v-422z" />
    <glyph glyph-name="A" unicode="A" horiz-adv-x="1529" 
d="M737 1348l-239 -754h526l-240 754h-47zM553 90v-90h-502v90h182l420 1294q11 33 27 44t55 12h60q39 0 55 -12t27 -44l419 -1294h183v-90h-510v90h217l-133 416l-584 -2l-133 -414h217z" />
    <glyph glyph-name="B" unicode="B" horiz-adv-x="1404" 
d="M1231 403q-1 -161 -21 -229t-65 -113q-61 -61 -213 -61h-830v90h207v1253h-207v91h820q154 0 213 -62q45 -44 64 -110t20 -195q0 -266 -193 -319v-5q111 -20 158 -100t47 -240zM410 700v-610h505q113 0 152 39q57 57 57 259t-59 265q-49 47 -168 47h-487zM410 788h475
q121 0 164 48q63 63 63 237t-57 232q-39 39 -152 38h-493v-555z" />
    <glyph glyph-name="C" unicode="C" horiz-adv-x="1413" 
d="M926 0h-430q-156 0 -213 57q-55 57 -77 185t-22 475q0 346 22 474t77 185q57 57 213 58h430q156 0 210 -52t72 -133q18 -80 23 -241h-103q-8 240 -61 295q-43 39 -152 38h-405q-113 -1 -150 -37t-52 -151t-15 -437t15 -436t52 -151t150 -37h405q111 0 147 36t49 104
t19 217h103q-3 -175 -23 -259t-72 -137t-212 -53z" />
    <glyph glyph-name="D" unicode="D" horiz-adv-x="1468" 
d="M412 1343v-1253h475q129 0 186 57q109 109 109 570t-109 569q-57 57 -186 57h-475zM893 1434q178 0 252 -74q75 -74 109 -215t34 -428t-35 -428t-109 -215t-251 -74h-791v90h207v1253h-207v91h791z" />
    <glyph glyph-name="E" unicode="E" horiz-adv-x="1355" 
d="M309 1343h-207v91h1086v-410h-101v319h-675v-552h501v-91h-501v-610h682v342h100v-432h-1092v90h207v1253z" />
    <glyph glyph-name="F" unicode="F" horiz-adv-x="1284" 
d="M309 1343h-207v91h1065v-410h-100v319h-655v-573h467v-90h-467v-590h221v-90h-531v90h207v1253z" />
    <glyph glyph-name="G" unicode="G" horiz-adv-x="1425" 
d="M510 1341q-113 -1 -150 -37t-52 -151t-15 -437t15 -436t52 -151t150 -37h416q112 0 148 37t51 124t16 333v24h-412v90h514v-69q0 -311 -19 -415q-20 -104 -76 -160t-214 -56h-438q-156 0 -213 57q-55 57 -77 185t-22 475q0 346 22 474t77 185q57 57 213 58h436
q158 0 210 -52t70 -132t25 -238h-102q-6 133 -20 196q-13 63 -42 95q-43 39 -151 38h-412z" />
    <glyph glyph-name="H" unicode="H" horiz-adv-x="1595" 
d="M1286 1343v-1253h207v-90h-532v90h223v610h-772v-610h221v-90h-531v90h207v1253h-207v91h531v-91h-221v-552h772v552h-223v91h532v-91h-207z" />
    <glyph glyph-name="I" unicode="I" horiz-adv-x="763" 
d="M434 90h215v-90h-534v90h217v1253h-217v91h534v-91h-215v-1253z" />
    <glyph glyph-name="J" unicode="J" horiz-adv-x="1249" 
d="M864 1343h-223v91h530v-91h-202v-770q0 -242 -23 -348t-82 -167t-248 -60h-192q-164 0 -219 55t-75 137q-19 82 -26 252h103q6 -141 20 -210q14 -70 51 -106t150 -36h180q139 0 187 43q70 74 69 436v774z" />
    <glyph glyph-name="K" unicode="K" horiz-adv-x="1462" 
d="M412 700v-610h221v-90h-531v90h207v1253h-207v91h531v-91h-221v-555h206l488 558h-207v88h502v-91h-178l-525 -589l533 -664h184v-90h-512v88h205l-487 612h-209z" />
    <glyph glyph-name="L" unicode="L" horiz-adv-x="1265" 
d="M309 90v1253h-207v91h531v-91h-221v-1253h639v346h100v-436h-1049v90h207z" />
    <glyph glyph-name="M" unicode="M" horiz-adv-x="1974" 
d="M408 1346v-1256h192v-90h-498v90h207v1253h-207v91h365q29 0 39 -8t20 -35l453 -1295h20l453 1295q10 27 20 35t39 8h363v-91h-207v-1253h207v-90h-502v90h193v1256h-23l-465 -1299q-10 -31 -20 -39t-39 -8h-64q-29 0 -39 8t-20 39l-465 1299h-22z" />
    <glyph glyph-name="N" unicode="N" horiz-adv-x="1562" 
d="M1184 121v1222h-219v91h520v-91h-205v-1345h-115q-55 0 -80 49l-657 1278h-20v-1235h221v-90h-527v90h207v1253h-207v91h328q33 0 49 -10t31 -40l651 -1263h23z" />
    <glyph glyph-name="O" unicode="O" horiz-adv-x="1445" 
d="M293 717q0 -323 15 -437t52 -151t150 -37h426q114 0 150 37t52 152q15 115 15 437t-15 436q-14 114 -52 151t-150 36h-426q-113 -1 -150 -37t-52 -150t-15 -437zM496 1434h454q156 0 212 -58t78 -185q22 -128 22 -474t-22 -474t-77 -186q-57 -57 -213 -57h-454
q-156 0 -213 57q-55 57 -77 185t-22 475q0 346 22 474q22 127 78 185t212 58z" />
    <glyph glyph-name="P" unicode="P" horiz-adv-x="1302" 
d="M1182 1023q0 -159 -20 -231t-64 -116q-63 -66 -215 -66h-471v-520h221v-90h-531v90h207v1253h-207v91h781q152 0 215 -66q44 -46 64 -116t20 -229zM412 700h452q113 0 154 39q57 61 57 283t-57 283q-41 39 -154 38h-452v-643z" />
    <glyph glyph-name="Q" unicode="Q" horiz-adv-x="1445" 
d="M293 717q0 -323 15 -437t52 -151t150 -37h283l-142 295h109l135 -295h41q114 0 150 37t52 152q15 115 15 437t-15 436q-14 114 -52 151t-150 36h-426q-113 -1 -150 -37t-52 -150t-15 -437zM496 1434h454q156 0 212 -58t78 -185q22 -128 22 -474t-22 -474t-77 -186
q-57 -57 -213 -57h-12l106 -221h-108l-100 221h-340q-156 0 -213 57q-55 57 -77 185t-22 475q0 346 22 474q22 127 78 185t212 58z" />
    <glyph glyph-name="R" unicode="R" horiz-adv-x="1439" 
d="M412 743h456q106 0 154 48q63 63 63 257t-61 257q-39 39 -152 38h-460v-600zM1409 90v-90h-219q-54 0 -74 19t-27 79t-15 262t-54 250q-47 48 -166 47h-442v-567h219v-90h-529v90h207v1253h-207v91h791q152 0 211 -62q44 -45 66 -114t22 -227t-47 -231t-150 -100v-4
q101 -20 139 -84t47 -266t15 -256h213z" />
    <glyph glyph-name="S" unicode="S" horiz-adv-x="1370" 
d="M1194 380q0 -134 -19 -204t-65 -115q-57 -61 -201 -61h-460q-141 0 -193 50t-67 118t-15 250h102q2 -156 12 -209t43 -85q32 -32 128 -32h440q98 0 143 44t45 243q0 117 -8 159t-40 74t-152 41l-414 41q-160 16 -213 70q-35 35 -50 98t-15 195q0 233 81 315q61 61 199 62
h416q141 0 201 -58q43 -46 57 -112t16 -236h-102q-2 140 -11 194t-42 87t-129 32h-394q-98 0 -143 -45t-45 -237q0 -109 9 -151t40 -72t152 -41l413 -41q160 -16 213 -70q36 -38 52 -104t16 -200z" />
    <glyph glyph-name="T" unicode="T" horiz-adv-x="1425" 
d="M764 90h217v-90h-537v90h218v1253h-439v-354h-100v445h1180v-445h-101v354h-438v-1253z" />
    <glyph glyph-name="U" unicode="U" horiz-adv-x="1570" 
d="M1188 1343h-223v91h528v-91h-203v-768q0 -243 -22 -351t-82 -166t-246 -58h-311q-185 0 -245 59t-82 165t-21 351v768h-203v91h528v-91h-223v-776q0 -360 72 -432q43 -43 186 -43h291q141 0 181 40t57 132t18 303v776z" />
    <glyph glyph-name="V" unicode="V" horiz-adv-x="1515" 
d="M51 1343v91h510v-91h-215l391 -1253h47l394 1253h-215v91h501v-91h-184l-414 -1296q-10 -33 -25 -44t-57 -11h-55q-39 0 -55 11t-27 44l-411 1296h-185z" />
    <glyph glyph-name="W" unicode="W" horiz-adv-x="2127" 
d="M1092 1440q41 0 58 -12t24 -44l305 -1292h39l270 1251h-207v91h487v-91h-184l-289 -1296q-6 -31 -23 -42t-59 -11h-45q-41 0 -57 11t-25 44l-303 1290h-36l-306 -1290q-6 -33 -22 -44t-57 -11h-48q-39 0 -56 11t-26 42l-288 1296h-185v91h494v-91h-205l270 -1251h39
l306 1292q6 33 23 44t58 12h48z" />
    <glyph glyph-name="X" unicode="X" horiz-adv-x="1449" 
d="M82 1343v91h506v-88h-203l346 -547h19l356 547h-205v88h496v-91h-183l-405 -608l416 -645h182v-90h-520v88h217l-359 571h-18l-365 -571h218v-88h-508v90h182l416 633l-406 620h-182z" />
    <glyph glyph-name="Y" unicode="Y" horiz-adv-x="1417" 
d="M33 1343v91h510v-88h-207l371 -644h10l375 644h-205v88h495v-91h-186l-438 -737v-516h217v-90h-537v90h219v514l-438 739h-186z" />
    <glyph glyph-name="Z" unicode="Z" horiz-adv-x="1329" 
d="M1092 88v334h98v-422h-1051v70l926 1276h-784v-324h-101v412h1020v-70l-924 -1276h816z" />
    <glyph glyph-name="bracketleft" unicode="[" horiz-adv-x="806" 
d="M203 1434h481v-88h-383v-1565h383v-88h-481v1741z" />
    <glyph glyph-name="backslash" unicode="\" horiz-adv-x="929" 
d="M887 -328l-836 1782h101l835 -1782h-100z" />
    <glyph glyph-name="bracketright" unicode="]" horiz-adv-x="806" 
d="M604 1434v-1741h-481v88h383v1565h-383v88h481z" />
    <glyph glyph-name="asciicircum" unicode="^" horiz-adv-x="1034" 
d="M180 979v10l299 451h76l301 -451v-10h-74l-266 371l-266 -371h-70z" />
    <glyph glyph-name="underscore" unicode="_" horiz-adv-x="1017" 
d="M-8 -215v82h1032v-82h-1032z" />
    <glyph glyph-name="grave" unicode="`" 
d="M649 1231h-82l-276 239v11h155l203 -240v-10z" />
    <glyph glyph-name="a" unicode="a" horiz-adv-x="1210" 
d="M545 84q84 0 146 27t167 100v321h-381q-88 0 -127 -10t-63 -37q-45 -43 -45 -180t44 -179t144 -42h115zM858 821q0 115 -37 150q-27 31 -127 30h-196q-119 1 -163 -43t-46 -188h-99q2 109 19 165q16 56 53 93q61 59 217 59h226q145 0 198 -53t53 -211v-737h185v-86h-283
v145q-109 -87 -172 -117t-156 -30h-114q-145 0 -210 64t-65 240q0 175 68 243t274 67q139 0 375 -16v225z" />
    <glyph glyph-name="b" unicode="b" horiz-adv-x="1269" 
d="M676 1001q-82 -1 -146 -29t-172 -106v-643q109 -81 172 -109t148 -28h102q129 0 176 51q37 35 50 115q12 80 12 292t-12 292t-50 116q-49 49 -176 49h-104zM358 1475v-543q122 96 184 127t156 31h97q172 0 231 -60q60 -60 76 -154q16 -93 16 -332t-16 -332t-68 -144
q-70 -70 -239 -70h-97q-94 0 -157 31t-183 127v-156h-284v86h186v1300h-186v89h284z" />
    <glyph glyph-name="c" unicode="c" horiz-adv-x="1140" 
d="M471 0q-166 0 -223 57q-58 57 -78 155t-20 333q0 236 20 332t78 153t223 57h238q156 0 213 -57q39 -39 56 -97t19 -181h-98q-2 160 -45 204t-160 43h-217q-121 0 -159 -39q-38 -40 -52 -120t-14 -296t14 -297t53 -120t158 -39h219q117 0 161 45t46 213h96
q-2 -131 -18 -189q-16 -57 -65 -107t-205 -50h-240z" />
    <glyph glyph-name="d" unicode="d" horiz-adv-x="1269" 
d="M594 86q82 0 144 29t173 106v643q-109 80 -172 109t-147 28h-103q-127 0 -170 -43q-43 -42 -55 -122t-12 -292t12 -292t49 -115q47 -51 176 -51h105zM911 0v156q-121 -96 -183 -127t-157 -31h-96q-170 0 -239 70q-51 51 -69 145q-17 94 -17 332t17 331q17 94 77 154
t231 60h96q93 0 155 -31t185 -127v457h-202v86h301v-1389h186v-86h-285z" />
    <glyph glyph-name="e" unicode="e" horiz-adv-x="1159" 
d="M477 1001q-119 0 -157 -38q-38 -37 -53 -111t-17 -260h663q-2 184 -16 259t-52 113t-159 37h-209zM989 510h-739q2 -196 17 -272t52 -113t158 -37h234q117 0 155 41q47 43 49 201h99q-4 -123 -20 -178t-56 -95q-57 -57 -215 -57h-252q-166 0 -223 57q-58 57 -78 155
t-20 333q0 236 20 332t78 153t223 57h223q166 0 222 -56t77 -153q20 -97 21 -323v-20q0 -25 -25 -25z" />
    <glyph glyph-name="f" unicode="f" horiz-adv-x="690" 
d="M635 1389h-129q-68 0 -98 -33t-31 -166v-103h239v-86h-237v-915h194v-86h-481v86h189v915h-189v86h189v103q0 178 53 231t158 54h143v-86z" />
    <glyph glyph-name="g" unicode="g" horiz-adv-x="1269" 
d="M489 1001q-127 0 -170 -43q-43 -44 -55 -118t-12 -261t13 -265t48 -111q49 -49 176 -49h105q84 0 146 28t171 107v575q-109 80 -172 109t-147 28h-103zM424 -307q-123 0 -165 43t-55 85t-16 132h97q4 -111 41 -143q33 -33 116 -33h314q78 0 116 39t39 178v229
q-121 -96 -183 -127t-157 -30h-96q-170 0 -239 69q-50 51 -68 143t-18 300q0 209 17 301t69 143q68 68 239 68h96q93 0 155 -31t185 -127v155h285v-86h-186v-999q0 -113 -16 -167t-59 -98q-44 -44 -165 -44h-346z" />
    <glyph glyph-name="h" unicode="h" horiz-adv-x="1300" 
d="M365 1475v-543q119 96 181 127t159 31h116q133 0 187 -54t53 -192v-758h186v-86h-467v86h183v752q0 94 -35 129t-133 34h-113q-82 -1 -144 -27t-173 -106v-782h180v-86h-467v86h188v1300h-188v89h287z" />
    <glyph glyph-name="i" unicode="i" horiz-adv-x="655" 
d="M584 0h-475v86h190v915h-190v86h288v-1001h187v-86zM274 1319v170h127v-170h-127z" />
    <glyph glyph-name="j" unicode="j" horiz-adv-x="598" 
d="M162 -309q-55 0 -99 10v78h82q78 0 109 31t31 118v1073h-191v86h289v-1144q0 -148 -53 -200t-168 -52zM260 1319v170h127v-170h-127z" />
    <glyph glyph-name="k" unicode="k" horiz-adv-x="1206" 
d="M1151 86v-86h-256l-377 504h-153v-418h180v-86h-467v86h188v1300h-188v89h287v-885h157l342 414h-184v83h461v-86h-166l-373 -446l359 -469h190z" />
    <glyph glyph-name="l" unicode="l" horiz-adv-x="636" 
d="M565 0h-475v86h189v1300h-189v89h289v-1389h186v-86z" />
    <glyph glyph-name="m" unicode="m" horiz-adv-x="1990" 
d="M379 1087v-155q121 96 182 127t158 31h106q135 0 189 -54q37 -41 47 -108q125 100 187 131t159 31h106q133 0 187 -54t53 -192v-758h182v-86h-460v86h180v752q0 94 -35 129t-135 34h-101q-82 -1 -145 -27t-172 -106v-782h180v-86h-461v86h181v752q0 94 -34 129t-134 34
h-103q-82 -1 -144 -27t-173 -108v-780h180v-86h-467v86h189v915h-189v86h287z" />
    <glyph glyph-name="n" unicode="n" horiz-adv-x="1314" 
d="M379 1087v-155q121 96 182 127t158 31h117q135 0 187 -54t52 -192v-758h187v-86h-465v86h180v752q0 94 -35 129t-133 34h-113q-82 -1 -144 -27t-173 -108v-780h180v-86h-467v86h189v915h-189v86h287z" />
    <glyph glyph-name="o" unicode="o" horiz-adv-x="1183" 
d="M477 999q-121 0 -159 -39q-38 -40 -52 -120t-14 -296t14 -297t53 -120t158 -39h228q121 0 159 38t52 120q16 82 16 298t-16 298q-15 82 -52 120t-159 37h-228zM471 0q-166 0 -223 57q-58 57 -78 155t-20 333q0 236 20 332t78 153t223 57h242q164 0 221 -57
q58 -57 78 -153t20 -332t-20 -333q-20 -96 -78 -154t-221 -58h-242z" />
    <glyph glyph-name="p" unicode="p" horiz-adv-x="1269" 
d="M676 1001q-82 -1 -146 -29t-172 -106v-643q109 -81 172 -109t148 -28h102q129 0 176 51q37 35 50 115q12 80 12 292t-12 292t-50 116q-49 49 -176 49h-104zM795 1090q172 0 231 -60q60 -60 76 -154q16 -93 16 -332t-16 -332t-68 -144q-70 -70 -239 -70h-97q-94 0 -157 31
t-183 127v-377h203v-86h-487v86h186v1222h-186v86h284v-155q122 96 184 127t156 31h97z" />
    <glyph glyph-name="q" unicode="q" horiz-adv-x="1269" 
d="M594 86q82 0 144 29t173 106v643q-109 80 -172 109t-147 28h-103q-127 0 -170 -43q-43 -42 -55 -122t-12 -292t12 -292t49 -115q47 -51 176 -51h105zM150 545q0 238 17 331q17 94 77 154t231 60h96q93 0 155 -31t185 -127v155h285v-86h-186v-1222h186v-86h-487v86h202
v377q-121 -96 -183 -127t-157 -31h-96q-170 0 -239 70q-51 51 -69 145q-17 94 -17 332z" />
    <glyph glyph-name="r" unicode="r" horiz-adv-x="854" 
d="M379 86h188v-86h-475v86h189v915h-189v86h287v-188q117 123 168 157t123 34h125v-103h-133q-66 0 -120 -28t-163 -121v-752z" />
    <glyph glyph-name="s" unicode="s" horiz-adv-x="1103" 
d="M156 801q0 170 67 237q49 49 160 49h332q119 0 170 -47q33 -33 47 -86t14 -176h-94q-2 98 -10 135t-35 64t-107 27h-303q-69 0 -107 -38t-38 -162t30 -154t136 -40l301 -26q139 -12 188 -60t49 -228q0 -179 -67 -247q-49 -49 -158 -49h-356q-123 0 -165 43t-55 94
t-14 182h95q2 -106 10 -144q8 -37 34 -63t107 -26h328q73 0 109 37t36 169t-29 161t-135 39l-299 28q-145 14 -193 62t-48 219z" />
    <glyph glyph-name="t" unicode="t" horiz-adv-x="768" 
d="M676 84v-66l-78 -14q-86 -12 -170 -12t-133 49t-49 174v786h-178v86h178v275h98v-275h334v-86h-334v-774q0 -87 29 -115t110 -28h193z" />
    <glyph glyph-name="u" unicode="u" horiz-adv-x="1294" 
d="M936 0v156q-121 -96 -183 -127t-157 -31h-115q-80 0 -119 12t-69 43q-53 51 -53 193v755h-185v86h283v-837q0 -94 35 -129t135 -35h110q82 0 144 27t174 106v782h-201v86h301v-1001h187v-86h-287z" />
    <glyph glyph-name="v" unicode="v" horiz-adv-x="1241" 
d="M43 1001v86h426v-86h-168l309 -911h29l307 911h-168v86h422v-86h-151l-340 -960q-11 -29 -21 -38t-39 -9h-57q-27 0 -38 9t-22 38l-337 960h-152z" />
    <glyph glyph-name="w" unicode="w" horiz-adv-x="1716" 
d="M887 1090q29 0 40 -10t19 -40l234 -950h28l211 911h-168v86h414v-86h-152l-233 -958q-6 -29 -18 -39t-41 -10h-60q-29 0 -41 10t-18 39l-232 940h-26l-234 -940q-6 -29 -17 -39t-40 -10h-61q-29 0 -39 9t-19 40l-233 958h-152v86h420v-86h-168l211 -911h27l233 950
q8 29 20 39t39 11h56z" />
    <glyph glyph-name="x" unicode="x" horiz-adv-x="1198" 
d="M481 86v-86h-424v86h146l336 465l-324 450h-149v86h421v-83h-155l266 -390h6l273 390h-156v83h412v-86h-150l-326 -444l338 -471h146v-86h-432v86h170l-279 408h-6l-285 -408h172z" />
    <glyph glyph-name="y" unicode="y" horiz-adv-x="1241" 
d="M776 1001v86h422v-86h-151l-435 -1202q-20 -63 -56 -87q-61 -41 -306 -9v78h199q57 0 75 53l58 160l-387 1007h-152v86h428v-86h-168l324 -876h8l309 876h-168z" />
    <glyph glyph-name="z" unicode="z" horiz-adv-x="1110" 
d="M893 86v266h94v-352h-885v68l758 936h-631v-261h-94v344h858v-65l-757 -936h657z" />
    <glyph glyph-name="braceleft" unicode="{" horiz-adv-x="874" 
d="M461 1072q0 -58 18 -170q19 -112 19 -175t-40 -102t-153 -60v-4q113 -20 153 -61q40 -40 40 -102t-18 -176t-19 -170q0 -56 50 -136t196 -244h-84q-160 162 -211 241q-52 79 -52 147t19 185q18 117 18 159t-22 67q-39 39 -232 59v66q190 20 230 59q25 25 25 67t-19 159
t-19 185t52 148q52 78 211 240h84q-145 -164 -195 -244t-51 -138z" />
    <glyph glyph-name="bar" unicode="|" horiz-adv-x="598" 
d="M344 -328h-90v1925h90v-1925z" />
    <glyph glyph-name="braceright" unicode="}" horiz-adv-x="874" 
d="M477 404q1 -42 19 -160t18 -184q0 -68 -51 -148t-211 -240h-84q145 164 196 244q50 80 50 136t-19 170q-18 114 -18 176t40 102q40 41 152 61v4q-113 19 -153 59t-39 104q0 64 18 174q19 112 19 170t-50 138t-196 244h84q160 -160 211 -240t51 -148t-18 -185t-18 -159
t24 -67q39 -39 229 -59v-66q-195 -20 -229 -59q-25 -25 -25 -67z" />
    <glyph glyph-name="asciitilde" unicode="~" horiz-adv-x="927" 
d="M756 623q0 -86 -70 -86h-14q-31 0 -101 26l-313 125l-31 -147h-55v139q0 50 16 68t54 18h14q31 0 100 -27l312 -125l32 148h56v-139z" />
    <glyph glyph-name="uni00A0" unicode="&#xa0;" horiz-adv-x="495" 
 />
    <glyph glyph-name="exclamdown" unicode="&#xa1;" horiz-adv-x="573" 
d="M354 1280h-127v154h127v-154zM354 0h-129v76l35 981h49l45 -981v-76z" />
    <glyph glyph-name="cent" unicode="&#xa2;" horiz-adv-x="1177" 
d="M502 283h69v878h-69q-121 0 -158 -37q-37 -36 -52 -118q-16 -82 -16 -285t16 -283t52 -118q37 -37 158 -37zM498 195q-164 0 -222 58q-58 57 -79 153t-21 316t21 315q20 95 77 153t224 57h71v193h84v-193h82q154 0 209 -55q39 -39 56 -96t24 -176h-94q-12 160 -54 200
t-153 41h-72v-878h74q115 0 157 42t50 210h94q-4 -127 -21 -185t-59 -98q-57 -57 -209 -57h-84v-201h-84v201h-71z" />
    <glyph glyph-name="sterling" unicode="&#xa3;" horiz-adv-x="1396" 
d="M879 1343h-215q-125 0 -176 -51t-52 -256v-278h434v-90h-434v-578h682v332h101v-422h-1092v90h205v578h-203v90h203v272q0 147 20 220t66 118q68 68 246 68h225q166 0 231 -66q44 -44 64 -116t22 -234h-102q-4 225 -62 278q-45 45 -163 45z" />
    <glyph glyph-name="yen" unicode="&#xa5;" horiz-adv-x="1382" 
d="M1122 641v-88h-383v-463h217v-90h-532v90h217v463h-383v88h358l-393 702h-186v91h508v-88h-205l350 -646h8l357 646h-205v88h496v-91h-187l-397 -702h360z" />
    <glyph glyph-name="section" unicode="&#xa7;" horiz-adv-x="1357" 
d="M244 742q0 -106 32 -137q32 -32 132 -42l548 -49q82 -8 122 32t40 143t-35 138q-27 31 -129 41l-551 50q-83 8 -121 -31t-38 -145zM147 738q0 144 66 210q49 49 149 49q-40 59 -40 185t62 188t198 64h206q132 0 178 -46t60 -100q14 -55 16 -186h-98q-2 166 -41 206
t-129 40h-186q-90 0 -128 -38t-38 -140t35 -138q35 -35 127 -43l399 -37q131 -14 180 -64t49 -194t-65 -211q-45 -49 -152 -49q43 -55 43 -183q0 -129 -62 -191t-198 -62h-207q-131 0 -177 46t-59 100t-16 186h97q2 -102 11 -144t40 -72t119 -30h186q90 0 128 38t38 140
t-35 137t-127 43l-399 39q-123 9 -177 61t-53 196z" />
    <glyph glyph-name="dieresis" unicode="&#xa8;" 
d="M637 1321v168h127v-168h-127zM260 1321v168h127v-168h-127z" />
    <glyph glyph-name="copyright" unicode="&#xa9;" horiz-adv-x="1615" 
d="M924 330h-234q-86 0 -118 32t-44 102t-12 262t12 260t43 101q33 31 119 31h234q88 0 118 -30t38 -72q9 -42 14 -131h-66q-2 121 -33 153q-18 20 -84 21h-206q-63 -1 -83 -21t-30 -78q-8 -58 -8 -235t8 -235t30 -80t83 -21h206q66 0 84 23q29 31 33 163h66
q-4 -96 -14 -140q-10 -45 -40 -75t-116 -30zM231 719q0 -455 123 -582q49 -49 117 -71t205 -23h266q137 0 204 23t116 71q122 123 122 578t-122 581q-49 49 -116 72t-204 23h-266q-137 0 -205 -23t-117 -72q-123 -122 -123 -577zM184 717q0 471 133 608q53 55 127 82t220 27
h290q143 0 218 -27t126 -82q136 -139 136 -608t-136 -608q-51 -55 -126 -82t-218 -27h-290q-146 0 -220 27t-127 82q-133 137 -133 608z" />
    <glyph glyph-name="ordfeminine" unicode="&#xaa;" horiz-adv-x="1026" 
d="M154 383v74h733v-74h-733zM457 717q61 0 105 18t116 70v219h-270q-102 0 -132 -30t-30 -125t34 -123t107 -29h70zM410 1434h168q104 0 143 -38t39 -155v-520h127v-76h-209v103q-78 -64 -122 -84t-110 -21h-71q-117 0 -165 50t-48 176t50 176q50 51 183 51t283 -15v158
q0 80 -23 100q-18 20 -90 21h-145q-82 0 -110 -28t-27 -130h-84q2 141 53 189q41 43 158 43z" />
    <glyph glyph-name="guillemotleft" unicode="&#xab;" horiz-adv-x="1058" 
d="M111 514v59l331 349h117l-354 -377l354 -377h-117zM485 514v59l332 349h117l-354 -377l356 -377h-119z" />
    <glyph glyph-name="registered" unicode="&#xae;" horiz-adv-x="983" 
d="M578 643h-172q-127 0 -189 62q-76 79 -76 333t76 334q61 61 189 62h172q127 0 188 -62q76 -80 76 -334t-76 -333q-61 -62 -188 -62zM575 676q117 0 162 49q68 63 68 313t-68 314q-45 49 -162 49h-169q-113 0 -162 -49q-66 -66 -66 -314t66 -313q49 -49 162 -49h169z
M639 945q0 -48 6 -79h66v-37h-76q-17 1 -27 9t-11 80t-16 88t-53 16h-118v-156h63v-37h-168v37h62v361h-62v37h244q47 0 67 -21q25 -31 25 -109t-55 -94v-2q31 -8 42 -26t11 -67zM410 1059h122q33 0 48 12q18 23 18 75t-13 66t-50 15h-125v-168z" />
    <glyph glyph-name="macron" unicode="&#xaf;" 
d="M221 1249v86h582v-86h-582z" />
    <glyph glyph-name="degree" unicode="&#xb0;" horiz-adv-x="839" 
d="M485 1434q105 0 147 -44t58 -102q16 -59 15 -183q1 -124 -15 -182t-51 -94q-47 -51 -154 -51h-131q-106 0 -153 51q-66 70 -66 277t66 278q49 49 153 50h131zM360 854h121q68 0 103 38q34 38 34 216t-40 219q-29 31 -97 31h-121q-70 0 -98 -31q-41 -41 -41 -219t41 -223
q26 -31 98 -31z" />
    <glyph glyph-name="plusminus" unicode="&#xb1;" horiz-adv-x="1060" 
d="M135 246v90h791v-90h-791zM575 1239v-350h351v-88h-351v-350h-90v350h-350v88h350v350h90z" />
    <glyph glyph-name="acute" unicode="&#xb4;" 
d="M283 1231v10l202 240h156v-11l-276 -239h-82z" />
    <glyph glyph-name="paragraph" unicode="&#xb6;" horiz-adv-x="1177" 
d="M119 1023q0 159 19 229t63 116q66 66 215 66h674v-91h-209v-1253h209v-90h-533v90h221v520h-362q-150 0 -215 66q-43 44 -63 116t-19 231z" />
    <glyph glyph-name="periodcentered" unicode="&#xb7;" horiz-adv-x="407" 
d="M129 735h150v-170h-150v170z" />
    <glyph glyph-name="cedilla" unicode="&#xb8;" 
d="M547 -86q96 0 131 -35t35 -121t-35 -121t-133 -34h-131l-70 51v18h195q55 0 73 18t18 69q0 52 -18 71q-23 16 -73 16h-105v68h113z" />
    <glyph glyph-name="ordmasculine" unicode="&#xba;" horiz-adv-x="972" 
d="M158 383v74h663v-74h-663zM416 721h145q84 0 112 28t39 85t11 205q0 149 -11 205t-38 84t-113 28h-145q-86 0 -112 -28t-38 -85t-12 -205t12 -204t39 -85q27 -28 111 -28zM573 643h-170q-117 0 -161 44t-61 115q-15 70 -15 236t15 237t61 115t161 44h170q119 0 163 -44
t60 -116t17 -236q0 -164 -16 -236q-17 -72 -61 -115q-44 -44 -163 -44z" />
    <glyph glyph-name="guillemotright" unicode="&#xbb;" horiz-adv-x="1058" 
d="M948 514l-332 -346h-116l354 375l-354 379h116l332 -349v-59zM573 514l-331 -346h-117l354 375l-356 379h119l331 -349v-59z" />
    <glyph glyph-name="questiondown" unicode="&#xbf;" horiz-adv-x="1175" 
d="M1020 410q0 -174 -14 -242t-64 -118t-186 -50h-328q-137 0 -206 68t-68 266q0 117 17 181t82 110l27 18q20 15 127 59t141 77q34 34 44 85t12 174h86v-59q0 -113 -12 -168t-51 -94t-148 -88q-137 -55 -169 -87t-41 -69t-9 -165t45 -172t135 -44h305q88 0 120 31t41 86
t12 201h102zM711 1280h-127v154h127v-154z" />
    <glyph glyph-name="Agrave" unicode="&#xc0;" horiz-adv-x="1529" 
d="M850 1575h-82l-276 240v10h155l203 -240v-10zM737 1348l-239 -754h526l-240 754h-47zM553 90v-90h-502v90h182l420 1294q11 33 27 44t55 12h60q39 0 55 -12t27 -44l419 -1294h183v-90h-510v90h217l-133 416l-584 -2l-133 -414h217z" />
    <glyph glyph-name="Aacute" unicode="&#xc1;" horiz-adv-x="1529" 
d="M672 1575v10l202 240h156v-10l-276 -240h-82zM737 1348l-239 -754h526l-240 754h-47zM553 90v-90h-502v90h182l420 1294q11 33 27 44t55 12h60q39 0 55 -12t27 -44l419 -1294h183v-90h-510v90h217l-133 416l-584 -2l-133 -414h217z" />
    <glyph glyph-name="Acircumflex" unicode="&#xc2;" horiz-adv-x="1529" 
d="M434 1581v10l271 248h110l270 -248v-10h-75l-252 178l-250 -178h-74zM737 1348l-239 -754h526l-240 754h-47zM553 90v-90h-502v90h182l420 1294q11 33 27 44t55 12h60q39 0 55 -12t27 -44l419 -1294h183v-90h-510v90h217l-133 416l-584 -2l-133 -414h217z" />
    <glyph glyph-name="Atilde" unicode="&#xc3;" horiz-adv-x="1529" 
d="M467 1608v139q0 49 16 67t52 19h16q35 0 94 -25l320 -127l32 148h56v-139q-1 -50 -17 -68t-51 -18h-16q-35 0 -95 24l-319 127l-33 -147h-55zM737 1348l-239 -754h526l-240 754h-47zM553 90v-90h-502v90h182l420 1294q11 33 27 44t55 12h60q39 0 55 -12t27 -44l419 -1294
h183v-90h-510v90h217l-133 416l-584 -2l-133 -414h217z" />
    <glyph glyph-name="Adieresis" unicode="&#xc4;" horiz-adv-x="1529" 
d="M885 1665v168h127v-168h-127zM508 1665v168h127v-168h-127zM737 1348l-239 -754h526l-240 754h-47zM553 90v-90h-502v90h182l420 1294q11 33 27 44t55 12h60q39 0 55 -12t27 -44l419 -1294h183v-90h-510v90h217l-133 416l-584 -2l-133 -414h217z" />
    <glyph glyph-name="Aring" unicode="&#xc5;" horiz-adv-x="1529" 
d="M846 1704h-164q-53 0 -78 -23q-29 -33 -29 -113t27 -105q27 -26 80 -25h164q53 0 80 26q26 26 26 105q0 80 -28 112q-25 23 -78 23zM737 1348l-239 -754h526l-240 754h-47zM553 90v-90h-502v90h182l416 1284q-71 2 -111 45t-40 149t42 153q42 46 138 46h172q96 0 138 -44
q42 -45 42 -153t-39 -149t-112 -47l417 -1284h183v-90h-510v90h217l-133 416l-584 -2l-133 -414h217z" />
    <glyph glyph-name="AE" unicode="&#xc6;" horiz-adv-x="2097" 
d="M1053 1348h-17l-444 -754h461v754zM846 88h207v418h-514l-246 -418h221v-88h-498v90h170l744 1253h-246v91h1247v-410h-100v319h-676v-552h502v-91h-502v-610h682v342h100v-432h-1091v88z" />
    <glyph glyph-name="Ccedilla" unicode="&#xc7;" horiz-adv-x="1413" 
d="M719 -86q96 0 131 -35t35 -121t-35 -121t-133 -34h-131l-70 51v18h195q55 0 73 18t18 69q0 52 -18 71q-23 16 -73 16h-105v68h113zM926 0h-430q-156 0 -213 57q-55 57 -77 185t-22 475q0 346 22 474t77 185q57 57 213 58h430q156 0 210 -52t72 -133q18 -80 23 -241h-103
q-8 240 -61 295q-43 39 -152 38h-405q-113 -1 -150 -37t-52 -151t-15 -437t15 -436t52 -151t150 -37h405q111 0 147 36t49 104t19 217h103q-3 -175 -23 -259t-72 -137t-212 -53z" />
    <glyph glyph-name="Egrave" unicode="&#xc8;" horiz-adv-x="1355" 
d="M764 1575h-82l-276 240v10h155l203 -240v-10zM309 1343h-207v91h1086v-410h-101v319h-675v-552h501v-91h-501v-610h682v342h100v-432h-1092v90h207v1253z" />
    <glyph glyph-name="Eacute" unicode="&#xc9;" horiz-adv-x="1355" 
d="M309 1343h-207v91h1086v-410h-101v319h-675v-552h501v-91h-501v-610h682v342h100v-432h-1092v90h207v1253zM584 1575v10l202 240h156v-10l-276 -240h-82z" />
    <glyph glyph-name="Ecircumflex" unicode="&#xca;" horiz-adv-x="1355" 
d="M348 1581v10l270 248h111l270 -248v-10h-75l-252 178l-250 -178h-74zM309 1343h-207v91h1086v-410h-101v319h-675v-552h501v-91h-501v-610h682v342h100v-432h-1092v90h207v1253z" />
    <glyph glyph-name="Edieresis" unicode="&#xcb;" horiz-adv-x="1355" 
d="M309 1343h-207v91h1086v-410h-101v319h-675v-552h501v-91h-501v-610h682v342h100v-432h-1092v90h207v1253zM799 1665v168h127v-168h-127zM422 1665v168h127v-168h-127z" />
    <glyph glyph-name="Igrave" unicode="&#xcc;" horiz-adv-x="763" 
d="M473 1575h-82l-276 240v10h155l203 -240v-10zM434 90h215v-90h-534v90h217v1253h-217v91h534v-91h-215v-1253z" />
    <glyph glyph-name="Iacute" unicode="&#xcd;" horiz-adv-x="763" 
d="M291 1575v10l203 240h155v-10l-276 -240h-82zM434 90h215v-90h-534v90h217v1253h-217v91h534v-91h-215v-1253z" />
    <glyph glyph-name="Icircumflex" unicode="&#xce;" horiz-adv-x="763" 
d="M57 1581v10l271 248h110l271 -248v-10h-76l-252 178l-250 -178h-74zM434 90h215v-90h-534v90h217v1253h-217v91h534v-91h-215v-1253z" />
    <glyph glyph-name="Idieresis" unicode="&#xcf;" horiz-adv-x="763" 
d="M508 1665v168h127v-168h-127zM131 1665v168h127v-168h-127zM434 90h215v-90h-534v90h217v1253h-217v91h534v-91h-215v-1253z" />
    <glyph glyph-name="Eth" unicode="&#xd0;" horiz-adv-x="1470" 
d="M731 688h-319v-598h475q131 0 186 57q109 109 109 570t-109 569q-57 57 -186 57h-475v-569h319v-86zM893 1434q178 0 252 -74q73 -74 109 -214t36 -429t-36 -429t-110 -214t-251 -74h-791v90h207v598h-207v86h207v569h-207v91h791z" />
    <glyph glyph-name="Ntilde" unicode="&#xd1;" horiz-adv-x="1562" 
d="M492 1608v139q0 49 16 67t51 19h16q35 0 95 -25l319 -127l33 148h55v-139q0 -50 -16 -68t-51 -18h-17q-35 0 -94 24l-319 127l-33 -147h-55zM1184 121v1222h-219v91h520v-91h-205v-1345h-115q-55 0 -80 49l-657 1278h-20v-1235h221v-90h-527v90h207v1253h-207v91h328
q33 0 49 -10t31 -40l651 -1263h23z" />
    <glyph glyph-name="Ograve" unicode="&#xd2;" horiz-adv-x="1445" 
d="M811 1575h-82l-276 240v10h155l203 -240v-10zM293 717q0 -323 15 -437t52 -151t150 -37h426q114 0 150 37t52 152q15 115 15 437t-15 436q-14 114 -52 151t-150 36h-426q-113 -1 -150 -37t-52 -150t-15 -437zM496 1434h454q156 0 212 -58t78 -185q22 -128 22 -474
t-22 -474t-77 -186q-57 -57 -213 -57h-454q-156 0 -213 57q-55 57 -77 185t-22 475q0 346 22 474q22 127 78 185t212 58z" />
    <glyph glyph-name="Oacute" unicode="&#xd3;" horiz-adv-x="1445" 
d="M293 717q0 -323 15 -437t52 -151t150 -37h426q114 0 150 37t52 152q15 115 15 437t-15 436q-14 114 -52 151t-150 36h-426q-113 -1 -150 -37t-52 -150t-15 -437zM496 1434h454q156 0 212 -58t78 -185q22 -128 22 -474t-22 -474t-77 -186q-57 -57 -213 -57h-454
q-156 0 -213 57q-55 57 -77 185t-22 475q0 346 22 474q22 127 78 185t212 58zM631 1575v10l203 240h155v-10l-276 -240h-82z" />
    <glyph glyph-name="Ocircumflex" unicode="&#xd4;" horiz-adv-x="1445" 
d="M395 1581v10l271 248h110l271 -248v-10h-76l-252 178l-250 -178h-74zM293 717q0 -323 15 -437t52 -151t150 -37h426q114 0 150 37t52 152q15 115 15 437t-15 436q-14 114 -52 151t-150 36h-426q-113 -1 -150 -37t-52 -150t-15 -437zM496 1434h454q156 0 212 -58t78 -185
q22 -128 22 -474t-22 -474t-77 -186q-57 -57 -213 -57h-454q-156 0 -213 57q-55 57 -77 185t-22 475q0 346 22 474q22 127 78 185t212 58z" />
    <glyph glyph-name="Otilde" unicode="&#xd5;" horiz-adv-x="1445" 
d="M428 1608v139q0 49 16 67t52 19h16q35 0 94 -25l320 -127l32 148h56v-139q0 -50 -16 -68t-52 -18h-16q-35 0 -94 24l-320 127l-33 -147h-55zM293 717q0 -323 15 -437t52 -151t150 -37h426q114 0 150 37t52 152q15 115 15 437t-15 436q-14 114 -52 151t-150 36h-426
q-113 -1 -150 -37t-52 -150t-15 -437zM496 1434h454q156 0 212 -58t78 -185q22 -128 22 -474t-22 -474t-77 -186q-57 -57 -213 -57h-454q-156 0 -213 57q-55 57 -77 185t-22 475q0 346 22 474q22 127 78 185t212 58z" />
    <glyph glyph-name="Odieresis" unicode="&#xd6;" horiz-adv-x="1445" 
d="M293 717q0 -323 15 -437t52 -151t150 -37h426q114 0 150 37t52 152q15 115 15 437t-15 436q-14 114 -52 151t-150 36h-426q-113 -1 -150 -37t-52 -150t-15 -437zM496 1434h454q156 0 212 -58t78 -185q22 -128 22 -474t-22 -474t-77 -186q-57 -57 -213 -57h-454
q-156 0 -213 57q-55 57 -77 185t-22 475q0 346 22 474q22 127 78 185t212 58zM846 1665v168h127v-168h-127zM469 1665v168h127v-168h-127z" />
    <glyph glyph-name="multiply" unicode="&#xd7;" horiz-adv-x="1060" 
d="M260 1077l270 -270l271 270l63 -63l-270 -271l270 -270l-63 -63l-271 270l-270 -270l-63 63l270 270l-270 271z" />
    <glyph glyph-name="Oslash" unicode="&#xd8;" horiz-adv-x="1445" 
d="M293 717q0 -323 15 -437t50 -149q10 -12 31 -22l578 1232h-457q-113 -1 -150 -37t-52 -150t-15 -437zM936 92q114 0 150 37t52 152q15 115 15 437q1 322 -15 436t-51 149q-23 18 -32 22l-578 -1233h459zM1262 717q0 -346 -22 -474t-77 -186q-57 -57 -213 -57h-454
q-45 0 -64 2l-51 -111h-96l59 125q-39 14 -61 41q-55 57 -77 185t-22 475q0 346 22 474q22 127 78 185t212 58h454l60 -2l53 110h96l-59 -127q31 -10 63 -39q55 -57 77 -185t22 -474z" />
    <glyph glyph-name="Ugrave" unicode="&#xd9;" horiz-adv-x="1570" 
d="M872 1575h-81l-277 240v10h156l202 -240v-10zM1188 1343h-223v91h528v-91h-203v-768q0 -243 -22 -351t-82 -166t-246 -58h-311q-185 0 -245 59t-82 165t-21 351v768h-203v91h528v-91h-223v-776q0 -360 72 -432q43 -43 186 -43h291q141 0 181 40t57 132t18 303v776z" />
    <glyph glyph-name="Uacute" unicode="&#xda;" horiz-adv-x="1570" 
d="M1188 1343h-223v91h528v-91h-203v-768q0 -243 -22 -351t-82 -166t-246 -58h-311q-185 0 -245 59t-82 165t-21 351v768h-203v91h528v-91h-223v-776q0 -360 72 -432q43 -43 186 -43h291q141 0 181 40t57 132t18 303v776zM694 1575v10l203 240h156v-10l-277 -240h-82z" />
    <glyph glyph-name="Ucircumflex" unicode="&#xdb;" horiz-adv-x="1570" 
d="M459 1581v10l270 248h111l270 -248v-10h-76l-252 178l-250 -178h-73zM1188 1343h-223v91h528v-91h-203v-768q0 -243 -22 -351t-82 -166t-246 -58h-311q-185 0 -245 59t-82 165t-21 351v768h-203v91h528v-91h-223v-776q0 -360 72 -432q43 -43 186 -43h291q141 0 181 40
t57 132t18 303v776z" />
    <glyph glyph-name="Udieresis" unicode="&#xdc;" horiz-adv-x="1570" 
d="M1188 1343h-223v91h528v-91h-203v-768q0 -243 -22 -351t-82 -166t-246 -58h-311q-185 0 -245 59t-82 165t-21 351v768h-203v91h528v-91h-223v-776q0 -360 72 -432q43 -43 186 -43h291q141 0 181 40t57 132t18 303v776zM909 1665v168h127v-168h-127zM532 1665v168h127
v-168h-127z" />
    <glyph glyph-name="Yacute" unicode="&#xdd;" horiz-adv-x="1417" 
d="M621 1575v10l202 240h156v-10l-277 -240h-81zM33 1343v91h510v-88h-207l371 -644h10l375 644h-205v88h495v-91h-186l-438 -737v-516h217v-90h-537v90h219v514l-438 739h-186z" />
    <glyph glyph-name="Thorn" unicode="&#xde;" horiz-adv-x="1296" 
d="M410 420h454q111 0 152 39q57 57 57 260t-57 260q-41 41 -152 41h-454v-600zM883 332h-473v-244h221v-88h-531v90h207v1253h-207v91h531v-88h-221v-238h473q150 0 215 -66q43 -48 62 -114q20 -66 20 -207t-20 -210t-62 -114q-65 -65 -215 -65z" />
    <glyph glyph-name="germandbls" unicode="&#xdf;" horiz-adv-x="1263" 
d="M1065 1100q0 -139 -43 -208t-131 -95v-2q129 -13 178 -97t49 -263t-20 -253t-66 -119q-61 -63 -225 -63h-240v86h228q123 0 163 41q60 63 60 289t-53 278q-53 53 -195 54h-149v90h127q112 0 164 53t52 213t-59 215q-41 41 -153 41h-160q-111 0 -159 -48t-48 -196v-1116
h-287v86h189v915h-189v86h189v27q1 190 71 260t220 72h188q156 0 217 -60q82 -81 82 -286z" />
    <glyph glyph-name="agrave" unicode="&#xe0;" horiz-adv-x="1210" 
d="M678 1231h-82l-277 239v11h156l203 -240v-10zM545 84q84 0 146 27t167 100v321h-381q-88 0 -127 -10t-63 -37q-45 -43 -45 -180t44 -179t144 -42h115zM858 821q0 115 -37 150q-27 31 -127 30h-196q-119 1 -163 -43t-46 -188h-99q2 109 19 165q16 56 53 93q61 59 217 59
h226q145 0 198 -53t53 -211v-737h185v-86h-283v145q-109 -87 -172 -117t-156 -30h-114q-145 0 -210 64t-65 240q0 175 68 243t274 67q139 0 375 -16v225z" />
    <glyph glyph-name="aacute" unicode="&#xe1;" horiz-adv-x="1210" 
d="M500 1231v10l202 240h156v-11l-276 -239h-82zM545 84q84 0 146 27t167 100v321h-381q-88 0 -127 -10t-63 -37q-45 -43 -45 -180t44 -179t144 -42h115zM858 821q0 115 -37 150q-27 31 -127 30h-196q-119 1 -163 -43t-46 -188h-99q2 109 19 165q16 56 53 93q61 59 217 59
h226q145 0 198 -53t53 -211v-737h185v-86h-283v145q-109 -87 -172 -117t-156 -30h-114q-145 0 -210 64t-65 240q0 175 68 243t274 67q139 0 375 -16v225z" />
    <glyph glyph-name="acircumflex" unicode="&#xe2;" horiz-adv-x="1210" 
d="M264 1237v10l271 248h110l270 -248v-10h-75l-252 178l-250 -178h-74zM545 84q84 0 146 27t167 100v321h-381q-88 0 -127 -10t-63 -37q-45 -43 -45 -180t44 -179t144 -42h115zM858 821q0 115 -37 150q-27 31 -127 30h-196q-119 1 -163 -43t-46 -188h-99q2 109 19 165
q16 56 53 93q61 59 217 59h226q145 0 198 -53t53 -211v-737h185v-86h-283v145q-109 -87 -172 -117t-156 -30h-114q-145 0 -210 64t-65 240q0 175 68 243t274 67q139 0 375 -16v225z" />
    <glyph glyph-name="atilde" unicode="&#xe3;" horiz-adv-x="1210" 
d="M297 1264v139q0 49 16 67t52 19h16q35 0 94 -25l320 -127l32 148h56v-139q-1 -50 -17 -68t-51 -18h-16q-35 0 -94 24l-320 127l-33 -147h-55zM545 84q84 0 146 27t167 100v321h-381q-88 0 -127 -10t-63 -37q-45 -43 -45 -180t44 -179t144 -42h115zM858 821q0 115 -37 150
q-27 31 -127 30h-196q-119 1 -163 -43t-46 -188h-99q2 109 19 165q16 56 53 93q61 59 217 59h226q145 0 198 -53t53 -211v-737h185v-86h-283v145q-109 -87 -172 -117t-156 -30h-114q-145 0 -210 64t-65 240q0 175 68 243t274 67q139 0 375 -16v225z" />
    <glyph glyph-name="adieresis" unicode="&#xe4;" horiz-adv-x="1210" 
d="M715 1321v168h127v-168h-127zM338 1321v168h127v-168h-127zM545 84q84 0 146 27t167 100v321h-381q-88 0 -127 -10t-63 -37q-45 -43 -45 -180t44 -179t144 -42h115zM858 821q0 115 -37 150q-27 31 -127 30h-196q-119 1 -163 -43t-46 -188h-99q2 109 19 165q16 56 53 93
q61 59 217 59h226q145 0 198 -53t53 -211v-737h185v-86h-283v145q-109 -87 -172 -117t-156 -30h-114q-145 0 -210 64t-65 240q0 175 68 243t274 67q139 0 375 -16v225z" />
    <glyph glyph-name="aring" unicode="&#xe5;" horiz-adv-x="1210" 
d="M672 1577h-164q-53 0 -78 -23q-29 -32 -29 -112t27 -106t80 -25h164q53 -1 80 25q26 26 26 106t-28 112q-25 23 -78 23zM676 1247h-172q-96 0 -138 44q-42 45 -42 151t42 152t138 46h172q96 0 138 -44t42 -152t-42 -153q-42 -44 -138 -44zM545 84q84 0 146 27t167 100
v321h-381q-88 0 -127 -10t-63 -37q-45 -43 -45 -180t44 -179t144 -42h115zM858 821q0 115 -37 150q-27 31 -127 30h-196q-119 1 -163 -43t-46 -188h-99q2 109 19 165q16 56 53 93q61 59 217 59h226q145 0 198 -53t53 -211v-737h185v-86h-283v145q-109 -87 -172 -117
t-156 -30h-114q-145 0 -210 64t-65 240q0 175 68 243t274 67q139 0 375 -16v225z" />
    <glyph glyph-name="ae" unicode="&#xe6;" horiz-adv-x="1863" 
d="M1178 1001q-119 0 -157 -37q-38 -36 -50 -108t-15 -258h662q-2 182 -16 255t-52 111t-159 37h-213zM858 526h-381q-88 0 -127 -10t-63 -35q-45 -45 -45 -179t44 -176t144 -42h115q88 0 152 28t177 111q-16 90 -16 303zM1184 1087h215q166 0 222 -56q57 -56 77 -151
t20 -319v-22q0 -25 -24 -25h-738q0 -200 14 -276t53 -113q38 -37 159 -37h233q117 0 156 41q47 43 49 201h98q-4 -123 -20 -178t-56 -95q-57 -57 -212 -57h-252q-166 0 -226 61q-45 41 -63 107q-129 -104 -195 -137t-162 -33h-116q-146 0 -210 64t-65 237q0 172 68 240
q68 67 260 67t389 -16v231q0 115 -37 150q-27 31 -127 30h-196q-119 1 -163 -43t-46 -188h-99q2 109 19 165q16 56 53 93q61 59 217 59h211q147 0 201 -53q20 -23 33 -55q52 108 260 108z" />
    <glyph glyph-name="ccedilla" unicode="&#xe7;" horiz-adv-x="1140" 
d="M580 -86q96 0 131 -35t35 -121t-36 -121q-34 -35 -132 -34h-132l-69 51v18h194q55 0 74 17q19 18 19 70t-19 71q-23 16 -74 16h-104v68h113zM471 0q-166 0 -223 57q-58 57 -78 155t-20 333q0 236 20 332t78 153t223 57h238q156 0 213 -57q39 -39 56 -97t19 -181h-98
q-2 160 -45 204t-160 43h-217q-121 0 -159 -39q-38 -40 -52 -120t-14 -296t14 -297t53 -120t158 -39h219q117 0 161 45t46 213h96q-2 -131 -18 -189q-16 -57 -65 -107t-205 -50h-240z" />
    <glyph glyph-name="egrave" unicode="&#xe8;" horiz-adv-x="1159" 
d="M676 1231h-82l-277 239v11h156l203 -240v-10zM477 1001q-119 0 -157 -38q-38 -37 -53 -111t-17 -260h663q-2 184 -16 259t-52 113t-159 37h-209zM989 510h-739q2 -196 17 -272t52 -113t158 -37h234q117 0 155 41q47 43 49 201h99q-4 -123 -20 -178t-56 -95
q-57 -57 -215 -57h-252q-166 0 -223 57q-58 57 -78 155t-20 333q0 236 20 332t78 153t223 57h223q166 0 222 -56t77 -153q20 -97 21 -323v-20q0 -25 -25 -25z" />
    <glyph glyph-name="eacute" unicode="&#xe9;" horiz-adv-x="1159" 
d="M498 1231v10l202 240h156v-11l-276 -239h-82zM477 1001q-119 0 -157 -38q-38 -37 -53 -111t-17 -260h663q-2 184 -16 259t-52 113t-159 37h-209zM989 510h-739q2 -196 17 -272t52 -113t158 -37h234q117 0 155 41q47 43 49 201h99q-4 -123 -20 -178t-56 -95
q-57 -57 -215 -57h-252q-166 0 -223 57q-58 57 -78 155t-20 333q0 236 20 332t78 153t223 57h223q166 0 222 -56t77 -153q20 -97 21 -323v-20q0 -25 -25 -25z" />
    <glyph glyph-name="ecircumflex" unicode="&#xea;" horiz-adv-x="1159" 
d="M262 1237v10l270 248h111l270 -248v-10h-75l-252 178l-250 -178h-74zM477 1001q-119 0 -157 -38q-38 -37 -53 -111t-17 -260h663q-2 184 -16 259t-52 113t-159 37h-209zM989 510h-739q2 -196 17 -272t52 -113t158 -37h234q117 0 155 41q47 43 49 201h99q-4 -123 -20 -178
t-56 -95q-57 -57 -215 -57h-252q-166 0 -223 57q-58 57 -78 155t-20 333q0 236 20 332t78 153t223 57h223q166 0 222 -56t77 -153q20 -97 21 -323v-20q0 -25 -25 -25z" />
    <glyph glyph-name="edieresis" unicode="&#xeb;" horiz-adv-x="1159" 
d="M336 1321v168h127v-168h-127zM713 1321v168h127v-168h-127zM477 1001q-119 0 -157 -38q-38 -37 -53 -111t-17 -260h663q-2 184 -16 259t-52 113t-159 37h-209zM989 510h-739q2 -196 17 -272t52 -113t158 -37h234q117 0 155 41q47 43 49 201h99q-4 -123 -20 -178t-56 -95
q-57 -57 -215 -57h-252q-166 0 -223 57q-58 57 -78 155t-20 333q0 236 20 332t78 153t223 57h223q166 0 222 -56t77 -153q20 -97 21 -323v-20q0 -25 -25 -25z" />
    <glyph glyph-name="igrave" unicode="&#xec;" horiz-adv-x="655" 
d="M401 1231h-82l-276 239v11h156l202 -240v-10zM584 0h-475v86h190v915h-190v86h288v-1001h187v-86z" />
    <glyph glyph-name="iacute" unicode="&#xed;" horiz-adv-x="655" 
d="M584 0h-475v86h190v915h-190v86h288v-1001h187v-86zM221 1231v10l203 240h156v-11l-277 -239h-82z" />
    <glyph glyph-name="icircumflex" unicode="&#xee;" horiz-adv-x="655" 
d="M-14 1237v10l270 248h111l270 -248v-10h-76l-252 178l-250 -178h-73zM584 0h-475v86h190v915h-190v86h288v-1001h187v-86z" />
    <glyph glyph-name="idieresis" unicode="&#xef;" horiz-adv-x="655" 
d="M584 0h-475v86h190v915h-190v86h288v-1001h187v-86zM436 1321v168h127v-168h-127zM59 1321v168h127v-168h-127z" />
    <glyph glyph-name="eth" unicode="&#xf0;" horiz-adv-x="1204" 
d="M932 518q0 186 -2 244q-106 78 -170 106t-148 29h-135q-121 0 -158 -38t-52 -113q-15 -76 -15 -254t15 -253t48 -110q43 -41 162 -41h228q121 0 159 39t54 122q14 83 14 269zM1032 642q0 -333 -19 -429q-19 -97 -77 -155t-223 -58h-242q-166 0 -222 57t-78 147
q-21 90 -21 289t22 289t77 146q56 56 222 57h121q92 0 156 -31t180 -125q-4 143 -27 215t-129 201l-301 -100v80l250 84l-146 166h89q61 -61 135 -140l270 90v-79l-213 -72q116 -133 146 -216t30 -416z" />
    <glyph glyph-name="ntilde" unicode="&#xf1;" horiz-adv-x="1314" 
d="M385 1264v139q0 49 16 67t52 19h16q35 0 94 -25l320 -127l32 148h56v-139q-1 -50 -17 -68t-51 -18h-16q-35 0 -94 24l-320 127l-33 -147h-55zM379 1087v-155q121 96 182 127t158 31h117q135 0 187 -54t52 -192v-758h187v-86h-465v86h180v752q0 94 -35 129t-133 34h-113
q-82 -1 -144 -27t-173 -108v-780h180v-86h-467v86h189v915h-189v86h287z" />
    <glyph glyph-name="ograve" unicode="&#xf2;" horiz-adv-x="1183" 
d="M680 1231h-82l-276 239v11h155l203 -240v-10zM477 999q-121 0 -159 -39q-38 -40 -52 -120t-14 -296t14 -297t53 -120t158 -39h228q121 0 159 38t52 120q16 82 16 298t-16 298q-15 82 -52 120t-159 37h-228zM471 0q-166 0 -223 57q-58 57 -78 155t-20 333q0 236 20 332
t78 153t223 57h242q164 0 221 -57q58 -57 78 -153t20 -332t-20 -333q-20 -96 -78 -154t-221 -58h-242z" />
    <glyph glyph-name="oacute" unicode="&#xf3;" horiz-adv-x="1183" 
d="M477 999q-121 0 -159 -39q-38 -40 -52 -120t-14 -296t14 -297t53 -120t158 -39h228q121 0 159 38t52 120q16 82 16 298t-16 298q-15 82 -52 120t-159 37h-228zM471 0q-166 0 -223 57q-58 57 -78 155t-20 333q0 236 20 332t78 153t223 57h242q164 0 221 -57
q58 -57 78 -153t20 -332t-20 -333q-20 -96 -78 -154t-221 -58h-242zM502 1231v10l203 240h155v-11l-276 -239h-82z" />
    <glyph glyph-name="ocircumflex" unicode="&#xf4;" horiz-adv-x="1183" 
d="M264 1237v10l271 248h110l270 -248v-10h-75l-252 178l-250 -178h-74zM477 999q-121 0 -159 -39q-38 -40 -52 -120t-14 -296t14 -297t53 -120t158 -39h228q121 0 159 38t52 120q16 82 16 298t-16 298q-15 82 -52 120t-159 37h-228zM471 0q-166 0 -223 57q-58 57 -78 155
t-20 333q0 236 20 332t78 153t223 57h242q164 0 221 -57q58 -57 78 -153t20 -332t-20 -333q-20 -96 -78 -154t-221 -58h-242z" />
    <glyph glyph-name="otilde" unicode="&#xf5;" horiz-adv-x="1183" 
d="M297 1264v139q0 49 16 67t52 19h16q35 0 94 -25l320 -127l32 148h56v-139q-1 -50 -17 -68t-51 -18h-16q-35 0 -94 24l-320 127l-33 -147h-55zM477 999q-121 0 -159 -39q-38 -40 -52 -120t-14 -296t14 -297t53 -120t158 -39h228q121 0 159 38t52 120q16 82 16 298t-16 298
q-15 82 -52 120t-159 37h-228zM471 0q-166 0 -223 57q-58 57 -78 155t-20 333q0 236 20 332t78 153t223 57h242q164 0 221 -57q58 -57 78 -153t20 -332t-20 -333q-20 -96 -78 -154t-221 -58h-242z" />
    <glyph glyph-name="odieresis" unicode="&#xf6;" horiz-adv-x="1183" 
d="M477 999q-121 0 -159 -39q-38 -40 -52 -120t-14 -296t14 -297t53 -120t158 -39h228q121 0 159 38t52 120q16 82 16 298t-16 298q-15 82 -52 120t-159 37h-228zM471 0q-166 0 -223 57q-58 57 -78 155t-20 333q0 236 20 332t78 153t223 57h242q164 0 221 -57
q58 -57 78 -153t20 -332t-20 -333q-20 -96 -78 -154t-221 -58h-242zM715 1321v168h127v-168h-127zM338 1321v168h127v-168h-127z" />
    <glyph glyph-name="divide" unicode="&#xf7;" horiz-adv-x="1060" 
d="M459 995v156h139v-156h-139zM459 336v156h139v-156h-139zM135 698v90h791v-90h-791z" />
    <glyph glyph-name="oslash" unicode="&#xf8;" horiz-adv-x="1183" 
d="M477 999q-121 0 -159 -39q-38 -40 -52 -120t-14 -296t14 -300t62 -127l440 880l-63 2h-228zM477 88h228q121 0 159 38t52 120q16 82 16 298t-16 298t-50 116l-20 17l-440 -885q18 -2 71 -2zM471 0q-78 0 -109 6l-55 -108h-96l70 135q-18 10 -35 28q-56 53 -76 151
t-20 333q0 236 20 332t78 153t223 57h242q55 0 98 -6l63 127h97l-78 -149q88 -38 119 -182q20 -96 20 -332t-20 -333q-20 -96 -78 -154t-221 -58h-242z" />
    <glyph glyph-name="ugrave" unicode="&#xf9;" horiz-adv-x="1294" 
d="M717 1231h-82l-277 239v11h156l203 -240v-10zM936 0v156q-121 -96 -183 -127t-157 -31h-115q-80 0 -119 12t-69 43q-53 51 -53 193v755h-185v86h283v-837q0 -94 35 -129t135 -35h110q82 0 144 27t174 106v782h-201v86h301v-1001h187v-86h-287z" />
    <glyph glyph-name="uacute" unicode="&#xfa;" horiz-adv-x="1294" 
d="M537 1231v10l202 240h156v-11l-277 -239h-81zM936 0v156q-121 -96 -183 -127t-157 -31h-115q-80 0 -119 12t-69 43q-53 51 -53 193v755h-185v86h283v-837q0 -94 35 -129t135 -35h110q82 0 144 27t174 106v782h-201v86h301v-1001h187v-86h-287z" />
    <glyph glyph-name="ucircumflex" unicode="&#xfb;" horiz-adv-x="1294" 
d="M301 1237v10l270 248h111l270 -248v-10h-75l-252 178l-250 -178h-74zM936 0v156q-121 -96 -183 -127t-157 -31h-115q-80 0 -119 12t-69 43q-53 51 -53 193v755h-185v86h283v-837q0 -94 35 -129t135 -35h110q82 0 144 27t174 106v782h-201v86h301v-1001h187v-86h-287z" />
    <glyph glyph-name="udieresis" unicode="&#xfc;" horiz-adv-x="1294" 
d="M375 1321v168h127v-168h-127zM752 1321v168h127v-168h-127zM936 0v156q-121 -96 -183 -127t-157 -31h-115q-80 0 -119 12t-69 43q-53 51 -53 193v755h-185v86h283v-837q0 -94 35 -129t135 -35h110q82 0 144 27t174 106v782h-201v86h301v-1001h187v-86h-287z" />
    <glyph glyph-name="yacute" unicode="&#xfd;" horiz-adv-x="1228" 
d="M535 1231v10l202 240h156v-11l-277 -239h-81zM772 1001v86h422v-86h-152l-434 -1202q-20 -63 -56 -87q-61 -41 -306 -9v78h198q57 0 76 53l58 160l-388 1007h-151v86h428v-86h-168l324 -876h8l309 876h-168z" />
    <glyph glyph-name="thorn" unicode="&#xfe;" horiz-adv-x="1261" 
d="M668 1001q-84 -1 -146 -29t-172 -106v-643q109 -81 172 -109t148 -28h102q129 0 176 51q37 35 49 115q13 80 13 292t-13 292q-12 80 -55 122t-170 43h-104zM252 -221v1607h-189v89h287v-543q118 94 182 126t158 32h96q172 0 232 -60t76 -154q16 -93 16 -332t-16 -332
t-68 -144q-70 -70 -240 -70h-96q-94 0 -159 31t-181 125v-375h203v-86h-490v86h189z" />
    <glyph glyph-name="ydieresis" unicode="&#xff;" horiz-adv-x="1228" 
d="M373 1321v168h127v-168h-127zM750 1321v168h127v-168h-127zM772 1001v86h422v-86h-152l-434 -1202q-20 -63 -56 -87q-61 -41 -306 -9v78h198q57 0 76 53l58 160l-388 1007h-151v86h428v-86h-168l324 -876h8l309 876h-168z" />
    <glyph glyph-name="Amacron" unicode="&#x100;" horiz-adv-x="1529" 
d="M469 1593v86h582v-86h-582zM737 1348l-239 -754h526l-240 754h-47zM553 90v-90h-502v90h182l420 1294q11 33 27 44t55 12h60q39 0 55 -12t27 -44l419 -1294h183v-90h-510v90h217l-133 416l-584 -2l-133 -414h217z" />
    <glyph glyph-name="amacron" unicode="&#x101;" horiz-adv-x="1210" 
d="M299 1249v86h582v-86h-582zM545 84q84 0 146 27t167 100v321h-381q-88 0 -127 -10t-63 -37q-45 -43 -45 -180t44 -179t144 -42h115zM858 821q0 115 -37 150q-27 31 -127 30h-196q-119 1 -163 -43t-46 -188h-99q2 109 19 165q16 56 53 93q61 59 217 59h226q145 0 198 -53
t53 -211v-737h185v-86h-283v145q-109 -87 -172 -117t-156 -30h-114q-145 0 -210 64t-65 240q0 175 68 243t274 67q139 0 375 -16v225z" />
    <glyph glyph-name="Abreve" unicode="&#x102;" horiz-adv-x="1529" 
d="M760 1663q213 0 244 176h67q-10 -123 -90 -193t-221 -69q-141 0 -221 70t-90 192h67q31 -176 244 -176zM737 1348l-239 -754h526l-240 754h-47zM553 90v-90h-502v90h182l420 1294q11 33 27 44t55 12h60q39 0 55 -12t27 -44l419 -1294h183v-90h-510v90h217l-133 416
l-584 -2l-133 -414h217z" />
    <glyph glyph-name="abreve" unicode="&#x103;" horiz-adv-x="1210" 
d="M590 1319q213 0 244 176h67q-10 -123 -90 -193t-221 -69q-141 0 -221 70t-90 192h67q31 -176 244 -176zM545 84q84 0 146 27t167 100v321h-381q-88 0 -127 -10t-63 -37q-45 -43 -45 -180t44 -179t144 -42h115zM858 821q0 115 -37 150q-27 31 -127 30h-196
q-119 1 -163 -43t-46 -188h-99q2 109 19 165q16 56 53 93q61 59 217 59h226q145 0 198 -53t53 -211v-737h185v-86h-283v145q-109 -87 -172 -117t-156 -30h-114q-145 0 -210 64t-65 240q0 175 68 243t274 67q139 0 375 -16v225z" />
    <glyph glyph-name="Aogonek" unicode="&#x104;" horiz-adv-x="1529" 
d="M737 1348l-239 -754h526l-240 754h-47zM553 90v-90h-502v90h182l420 1294q11 33 27 44t55 12h60q39 0 55 -12t27 -44l419 -1294h183v-90h-215q-61 -57 -88 -94t-27 -116t18 -97q20 -16 56 -17h67q33 0 53 17q19 19 19 121h80q0 -86 -8 -124t-34 -63t-97 -24h-97
q-74 1 -108 33t-33 130q0 98 25 138q25 41 90 96h-211v90h217l-133 416l-584 -2l-133 -414h217z" />
    <glyph glyph-name="aogonek" unicode="&#x105;" horiz-adv-x="1210" 
d="M545 84q84 0 146 27t167 100v321h-381q-88 0 -127 -10t-63 -37q-45 -43 -45 -180t44 -179t144 -42h115zM1034 -186h80q0 -86 -8 -124t-34 -63t-97 -24h-96q-74 1 -108 33t-34 130t24 137q24 40 97 101v141q-109 -87 -172 -117t-156 -30h-114q-145 0 -210 64t-65 240
q0 175 68 243t274 67q139 0 375 -16v225q0 115 -37 150q-27 31 -127 30h-196q-119 1 -163 -43t-46 -188h-99q2 109 19 165q16 56 53 93q61 59 217 59h226q145 0 198 -53t53 -211v-737h185v-86h-205q-61 -57 -88 -94t-27 -116t19 -97q20 -16 55 -17h68q33 0 53 17
q18 19 18 121z" />
    <glyph glyph-name="Cacute" unicode="&#x106;" horiz-adv-x="1413" 
d="M926 0h-430q-156 0 -213 57q-55 57 -77 185t-22 475q0 346 22 474t77 185q57 57 213 58h430q156 0 210 -52t72 -133q18 -80 23 -241h-103q-8 240 -61 295q-43 39 -152 38h-405q-113 -1 -150 -37t-52 -151t-15 -437t15 -436t52 -151t150 -37h405q111 0 147 36t49 104
t19 217h103q-3 -175 -23 -259t-72 -137t-212 -53zM625 1575v10l202 240h156v-10l-276 -240h-82z" />
    <glyph glyph-name="cacute" unicode="&#x107;" horiz-adv-x="1140" 
d="M471 0q-166 0 -223 57q-58 57 -78 155t-20 333q0 236 20 332t78 153t223 57h238q156 0 213 -57q39 -39 56 -97t19 -181h-98q-2 160 -45 204t-160 43h-217q-121 0 -159 -39q-38 -40 -52 -120t-14 -296t14 -297t53 -120t158 -39h219q117 0 161 45t46 213h96
q-2 -131 -18 -189q-16 -57 -65 -107t-205 -50h-240zM494 1231v10l202 240h156v-11l-277 -239h-81z" />
    <glyph glyph-name="Cdotaccent" unicode="&#x10a;" horiz-adv-x="1413" 
d="M651 1663v170h127v-170h-127zM926 0h-430q-156 0 -213 57q-55 57 -77 185t-22 475q0 346 22 474t77 185q57 57 213 58h430q156 0 210 -52t72 -133q18 -80 23 -241h-103q-8 240 -61 295q-43 39 -152 38h-405q-113 -1 -150 -37t-52 -151t-15 -437t15 -436t52 -151t150 -37
h405q111 0 147 36t49 104t19 217h103q-3 -175 -23 -259t-72 -137t-212 -53z" />
    <glyph glyph-name="cdotaccent" unicode="&#x10b;" horiz-adv-x="1140" 
d="M520 1319v170h127v-170h-127zM471 0q-166 0 -223 57q-58 57 -78 155t-20 333q0 236 20 332t78 153t223 57h238q156 0 213 -57q39 -39 56 -97t19 -181h-98q-2 160 -45 204t-160 43h-217q-121 0 -159 -39q-38 -40 -52 -120t-14 -296t14 -297t53 -120t158 -39h219
q117 0 161 45t46 213h96q-2 -131 -18 -189q-16 -57 -65 -107t-205 -50h-240z" />
    <glyph glyph-name="Ccaron" unicode="&#x10c;" horiz-adv-x="1413" 
d="M387 1839h76l250 -180l252 180h73v-10l-270 -248h-111l-270 248v10zM926 0h-430q-156 0 -213 57q-55 57 -77 185t-22 475q0 346 22 474t77 185q57 57 213 58h430q156 0 210 -52t72 -133q18 -80 23 -241h-103q-8 240 -61 295q-43 39 -152 38h-405q-113 -1 -150 -37
t-52 -151t-15 -437t15 -436t52 -151t150 -37h405q111 0 147 36t49 104t19 217h103q-3 -175 -23 -259t-72 -137t-212 -53z" />
    <glyph glyph-name="ccaron" unicode="&#x10d;" horiz-adv-x="1140" 
d="M256 1495h76l250 -180l252 180h73v-10l-270 -248h-111l-270 248v10zM471 0q-166 0 -223 57q-58 57 -78 155t-20 333q0 236 20 332t78 153t223 57h238q156 0 213 -57q39 -39 56 -97t19 -181h-98q-2 160 -45 204t-160 43h-217q-121 0 -159 -39q-38 -40 -52 -120t-14 -296
t14 -297t53 -120t158 -39h219q117 0 161 45t46 213h96q-2 -131 -18 -189q-16 -57 -65 -107t-205 -50h-240z" />
    <glyph glyph-name="Dcaron" unicode="&#x10e;" horiz-adv-x="1468" 
d="M367 1839h75l250 -180l252 180h74v-10l-270 -248h-111l-270 248v10zM412 1343v-1253h475q129 0 186 57q109 109 109 570t-109 569q-57 57 -186 57h-475zM893 1434q178 0 252 -74q75 -74 109 -215t34 -428t-35 -428t-109 -215t-251 -74h-791v90h207v1253h-207v91h791z" />
    <glyph glyph-name="dcaron" unicode="&#x10f;" horiz-adv-x="1331" 
d="M1174 1475h126v-158q0 -111 -34 -182l-64 -164l-41 14l45 184q6 35 6 53t-6 48l-32 166v39zM594 86q82 0 144 29t173 106v643q-109 80 -172 109t-147 28h-103q-127 0 -170 -43q-43 -42 -55 -122t-12 -292t12 -292t49 -115q47 -51 176 -51h105zM911 0v156
q-121 -96 -183 -127t-157 -31h-96q-170 0 -239 70q-51 51 -69 145q-17 94 -17 332t17 331q17 94 77 154t231 60h96q93 0 155 -31t185 -127v457h-202v86h301v-1389h186v-86h-285z" />
    <glyph glyph-name="Dcroat" unicode="&#x110;" horiz-adv-x="1470" 
d="M731 688h-319v-598h475q131 0 186 57q109 109 109 570t-109 569q-57 57 -186 57h-475v-569h319v-86zM893 1434q178 0 252 -74q73 -74 109 -214t36 -429t-36 -429t-110 -214t-251 -74h-791v90h207v598h-207v86h207v569h-207v91h791z" />
    <glyph glyph-name="dcroat" unicode="&#x111;" horiz-adv-x="1269" 
d="M594 86q82 0 144 29t173 106v643q-109 80 -172 109t-147 28h-103q-127 0 -170 -43q-43 -42 -55 -122t-12 -292t12 -292t49 -115q47 -51 176 -51h105zM150 545q0 238 17 331q17 94 77 154t231 60h96q93 0 155 -31t185 -127v250h-338v82h338v125h-202v86h301v-211h186v-82
h-186v-1096h186v-86h-285v156q-121 -96 -183 -127t-157 -31h-96q-170 0 -239 70q-51 51 -69 145q-17 94 -17 332z" />
    <glyph glyph-name="Emacron" unicode="&#x112;" horiz-adv-x="1355" 
d="M383 1593v86h582v-86h-582zM309 1343h-207v91h1086v-410h-101v319h-675v-552h501v-91h-501v-610h682v342h100v-432h-1092v90h207v1253z" />
    <glyph glyph-name="emacron" unicode="&#x113;" horiz-adv-x="1159" 
d="M297 1249v86h582v-86h-582zM477 1001q-119 0 -157 -38q-38 -37 -53 -111t-17 -260h663q-2 184 -16 259t-52 113t-159 37h-209zM989 510h-739q2 -196 17 -272t52 -113t158 -37h234q117 0 155 41q47 43 49 201h99q-4 -123 -20 -178t-56 -95q-57 -57 -215 -57h-252
q-166 0 -223 57q-58 57 -78 155t-20 333q0 236 20 332t78 153t223 57h223q166 0 222 -56t77 -153q20 -97 21 -323v-20q0 -25 -25 -25z" />
    <glyph glyph-name="Ebreve" unicode="&#x114;" horiz-adv-x="1355" 
d="M674 1663q213 0 244 176h67q-10 -123 -90 -193t-221 -69q-141 0 -221 70t-91 192h68q31 -176 244 -176zM309 1343h-207v91h1086v-410h-101v319h-675v-552h501v-91h-501v-610h682v342h100v-432h-1092v90h207v1253z" />
    <glyph glyph-name="ebreve" unicode="&#x115;" horiz-adv-x="1159" 
d="M588 1319q213 0 243 176h68q-10 -123 -90 -193t-221 -69q-141 0 -221 70t-91 192h68q31 -176 244 -176zM477 1001q-119 0 -157 -38q-38 -37 -53 -111t-17 -260h663q-2 184 -16 259t-52 113t-159 37h-209zM989 510h-739q2 -196 17 -272t52 -113t158 -37h234q117 0 155 41
q47 43 49 201h99q-4 -123 -20 -178t-56 -95q-57 -57 -215 -57h-252q-166 0 -223 57q-58 57 -78 155t-20 333q0 236 20 332t78 153t223 57h223q166 0 222 -56t77 -153q20 -97 21 -323v-20q0 -25 -25 -25z" />
    <glyph glyph-name="Edotaccent" unicode="&#x116;" horiz-adv-x="1355" 
d="M610 1663v170h127v-170h-127zM309 1343h-207v91h1086v-410h-101v319h-675v-552h501v-91h-501v-610h682v342h100v-432h-1092v90h207v1253z" />
    <glyph glyph-name="edotaccent" unicode="&#x117;" horiz-adv-x="1159" 
d="M524 1319v170h127v-170h-127zM477 1001q-119 0 -157 -38q-38 -37 -53 -111t-17 -260h663q-2 184 -16 259t-52 113t-159 37h-209zM989 510h-739q2 -196 17 -272t52 -113t158 -37h234q117 0 155 41q47 43 49 201h99q-4 -123 -20 -178t-56 -95q-57 -57 -215 -57h-252
q-166 0 -223 57q-58 57 -78 155t-20 333q0 236 20 332t78 153t223 57h223q166 0 222 -56t77 -153q20 -97 21 -323v-20q0 -25 -25 -25z" />
    <glyph glyph-name="Eogonek" unicode="&#x118;" horiz-adv-x="1355" 
d="M309 1343h-207v91h1086v-410h-101v319h-675v-552h501v-91h-501v-610h682v342h100v-432h-197q-61 -57 -88 -94t-27 -116t19 -97q20 -16 55 -17h68q33 0 53 17q18 18 19 121h80q0 -86 -8 -124t-34 -63t-98 -24h-96q-74 1 -108 33t-33 130t25 138q24 41 89 96h-811v90h207
v1253z" />
    <glyph glyph-name="eogonek" unicode="&#x119;" horiz-adv-x="1159" 
d="M477 1001q-119 0 -157 -38q-38 -37 -53 -111t-17 -260h663q-2 184 -16 259t-52 113t-159 37h-209zM913 -186h80q0 -86 -8 -124t-34 -63t-97 -24h-96q-74 1 -108 33t-34 130t25 138q25 41 90 96h-260q-166 0 -223 57q-58 57 -78 155t-20 333q0 236 20 332t78 153t223 57
h223q166 0 222 -56t77 -153q20 -97 21 -323v-20q0 -25 -25 -25h-739q2 -196 17 -272t52 -113t158 -37h234q117 0 155 41q47 43 49 201h99q-4 -123 -20 -178q-38 -127 -173 -148q-69 -59 -95 -97t-26 -117t19 -97q20 -16 55 -17h68q33 0 53 17q18 19 18 121z" />
    <glyph glyph-name="Ecaron" unicode="&#x11a;" horiz-adv-x="1355" 
d="M346 1839h76l250 -180l252 180h73v-10l-270 -248h-111l-270 248v10zM309 1343h-207v91h1086v-410h-101v319h-675v-552h501v-91h-501v-610h682v342h100v-432h-1092v90h207v1253z" />
    <glyph glyph-name="ecaron" unicode="&#x11b;" horiz-adv-x="1159" 
d="M260 1495h76l250 -180l252 180h73v-10l-270 -248h-111l-270 248v10zM477 1001q-119 0 -157 -38q-38 -37 -53 -111t-17 -260h663q-2 184 -16 259t-52 113t-159 37h-209zM989 510h-739q2 -196 17 -272t52 -113t158 -37h234q117 0 155 41q47 43 49 201h99q-4 -123 -20 -178
t-56 -95q-57 -57 -215 -57h-252q-166 0 -223 57q-58 57 -78 155t-20 333q0 236 20 332t78 153t223 57h223q166 0 222 -56t77 -153q20 -97 21 -323v-20q0 -25 -25 -25z" />
    <glyph glyph-name="Gbreve" unicode="&#x11e;" horiz-adv-x="1425" 
d="M715 1663q213 0 243 176h68q-10 -123 -90 -193t-221 -69q-141 0 -221 70t-91 192h68q31 -176 244 -176zM510 1341q-113 -1 -150 -37t-52 -151t-15 -437t15 -436t52 -151t150 -37h416q112 0 148 37t51 124t16 333v24h-412v90h514v-69q0 -311 -19 -415q-20 -104 -76 -160
t-214 -56h-438q-156 0 -213 57q-55 57 -77 185t-22 475q0 346 22 474t77 185q57 57 213 58h436q158 0 210 -52t70 -132t25 -238h-102q-6 133 -20 196q-13 63 -42 95q-43 39 -151 38h-412z" />
    <glyph glyph-name="gbreve" unicode="&#x11f;" horiz-adv-x="1269" 
d="M635 1319q213 0 244 176h67q-10 -123 -90 -193t-221 -69q-141 0 -221 70t-90 192h67q31 -176 244 -176zM489 1001q-127 0 -170 -43q-43 -44 -55 -118t-12 -261t13 -265t48 -111q49 -49 176 -49h105q84 0 146 28t171 107v575q-109 80 -172 109t-147 28h-103zM424 -307
q-123 0 -165 43t-55 85t-16 132h97q4 -111 41 -143q33 -33 116 -33h314q78 0 116 39t39 178v229q-121 -96 -183 -127t-157 -30h-96q-170 0 -239 69q-50 51 -68 143t-18 300q0 209 17 301t69 143q68 68 239 68h96q93 0 155 -31t185 -127v155h285v-86h-186v-999
q0 -113 -16 -167t-59 -98q-44 -44 -165 -44h-346z" />
    <glyph glyph-name="Gdotaccent" unicode="&#x120;" horiz-adv-x="1425" 
d="M651 1663v170h127v-170h-127zM510 1341q-113 -1 -150 -37t-52 -151t-15 -437t15 -436t52 -151t150 -37h416q112 0 148 37t51 124t16 333v24h-412v90h514v-69q0 -311 -19 -415q-20 -104 -76 -160t-214 -56h-438q-156 0 -213 57q-55 57 -77 185t-22 475q0 346 22 474
t77 185q57 57 213 58h436q158 0 210 -52t70 -132t25 -238h-102q-6 133 -20 196q-13 63 -42 95q-43 39 -151 38h-412z" />
    <glyph glyph-name="gdotaccent" unicode="&#x121;" horiz-adv-x="1269" 
d="M571 1319v170h127v-170h-127zM489 1001q-127 0 -170 -43q-43 -44 -55 -118t-12 -261t13 -265t48 -111q49 -49 176 -49h105q84 0 146 28t171 107v575q-109 80 -172 109t-147 28h-103zM424 -307q-123 0 -165 43t-55 85t-16 132h97q4 -111 41 -143q33 -33 116 -33h314
q78 0 116 39t39 178v229q-121 -96 -183 -127t-157 -30h-96q-170 0 -239 69q-50 51 -68 143t-18 300q0 209 17 301t69 143q68 68 239 68h96q93 0 155 -31t185 -127v155h285v-86h-186v-999q0 -113 -16 -167t-59 -98q-44 -44 -165 -44h-346z" />
    <glyph glyph-name="Gcommaaccent" unicode="&#x122;" horiz-adv-x="1425" 
d="M510 1341q-113 -1 -150 -37t-52 -151t-15 -437t15 -436t52 -151t150 -37h416q112 0 148 37t51 124t16 333v24h-412v90h514v-69q0 -311 -19 -415q-20 -104 -76 -160t-214 -56h-438q-156 0 -213 57q-55 57 -77 185t-22 475q0 346 22 474t77 185q57 57 213 58h436
q158 0 210 -52t70 -132t25 -238h-102q-6 133 -20 196q-13 63 -42 95q-43 39 -151 38h-412zM645 -143h146v-148q0 -66 -31 -104l-139 -187l-41 29l120 186q12 18 13 56v14h-68v154z" />
    <glyph glyph-name="gcommaaccent" unicode="&#x123;" horiz-adv-x="1269" 
d="M711 1292h-146v148q0 66 31 104l139 187l41 -29l-121 -186q-12 -18 -12 -56v-14h68v-154zM489 1001q-127 0 -170 -43q-43 -44 -55 -118t-12 -261t13 -265t48 -111q49 -49 176 -49h105q84 0 146 28t171 107v575q-109 80 -172 109t-147 28h-103zM424 -307q-123 0 -165 43
t-55 85t-16 132h97q4 -111 41 -143q33 -33 116 -33h314q78 0 116 39t39 178v229q-121 -96 -183 -127t-157 -30h-96q-170 0 -239 69q-50 51 -68 143t-18 300q0 209 17 301t69 143q68 68 239 68h96q93 0 155 -31t185 -127v155h285v-86h-186v-999q0 -113 -16 -167t-59 -98
q-44 -44 -165 -44h-346z" />
    <glyph glyph-name="Hbar" unicode="&#x126;" horiz-adv-x="1595" 
d="M412 778h772v250h-772v-250zM1493 1028h-207v-938h207v-90h-532v90h223v600h-772v-600h221v-90h-531v90h207v938h-207v84h207v231h-207v91h531v-91h-221v-231h772v231h-223v91h532v-91h-207v-231h207v-84z" />
    <glyph glyph-name="hbar" unicode="&#x127;" horiz-adv-x="1300" 
d="M365 1475v-211h335v-82h-335v-250q119 96 181 127t159 31h116q133 0 187 -54t53 -192v-758h186v-86h-467v86h183v752q0 94 -35 129t-133 34h-113q-82 -1 -144 -27t-173 -106v-782h180v-86h-467v86h188v1096h-188v82h188v122h-188v89h287z" />
    <glyph glyph-name="Imacron" unicode="&#x12a;" horiz-adv-x="763" 
d="M92 1593v86h582v-86h-582zM434 90h215v-90h-534v90h217v1253h-217v91h534v-91h-215v-1253z" />
    <glyph glyph-name="imacron" unicode="&#x12b;" horiz-adv-x="655" 
d="M20 1249v86h582v-86h-582zM584 0h-475v86h190v915h-190v86h288v-1001h187v-86z" />
    <glyph glyph-name="Ibreve" unicode="&#x12c;" horiz-adv-x="763" 
d="M383 1663q213 0 244 176h67q-10 -123 -90 -193t-221 -69q-141 0 -221 70t-90 192h67q31 -176 244 -176zM434 90h215v-90h-534v90h217v1253h-217v91h534v-91h-215v-1253z" />
    <glyph glyph-name="ibreve" unicode="&#x12d;" horiz-adv-x="655" 
d="M311 1319q213 0 244 176h68q-11 -123 -91 -193t-221 -69q-141 0 -221 70t-90 192h68q30 -176 243 -176zM584 0h-475v86h190v915h-190v86h288v-1001h187v-86z" />
    <glyph glyph-name="Iogonek" unicode="&#x12e;" horiz-adv-x="763" 
d="M520 -186h80q0 -86 -8 -124t-34 -63t-97 -24h-96q-74 1 -108 33t-34 130t25 138q25 41 90 96h-223v90h217v1253h-217v91h534v-91h-215v-1253h215v-90h-227q-61 -57 -88 -94t-27 -116t19 -97q20 -16 55 -17h68q33 0 53 17q18 19 18 121z" />
    <glyph glyph-name="iogonek" unicode="&#x12f;" horiz-adv-x="655" 
d="M274 1319v170h127v-170h-127zM467 -186h80q0 -86 -8 -124t-34 -63t-97 -24h-97q-73 1 -107 33t-34 130t25 138q25 41 90 96h-176v86h190v915h-190v86h288v-1001h187v-86h-215q-61 -57 -88 -94t-27 -116t18 -97q20 -16 56 -17h67q33 0 54 17q18 19 18 121z" />
    <glyph glyph-name="Idotaccent" unicode="&#x130;" horiz-adv-x="763" 
d="M319 1663v170h127v-170h-127zM434 90h215v-90h-534v90h217v1253h-217v91h534v-91h-215v-1253z" />
    <glyph glyph-name="dotlessi" unicode="&#x131;" horiz-adv-x="655" 
d="M584 0h-475v86h190v915h-190v86h288v-1001h187v-86z" />
    <glyph glyph-name="Kcommaaccent" unicode="&#x136;" horiz-adv-x="1462" 
d="M686 -143h145v-148q0 -66 -30 -104l-139 -187l-41 29l120 186q12 18 13 56v14h-68v154zM412 700v-610h221v-90h-531v90h207v1253h-207v91h531v-91h-221v-555h206l488 558h-207v88h502v-91h-178l-525 -589l533 -664h184v-90h-512v88h205l-487 612h-209z" />
    <glyph glyph-name="kcommaaccent" unicode="&#x137;" horiz-adv-x="1206" 
d="M543 -143h145v-148q0 -66 -31 -104l-139 -187l-41 29l121 186q12 18 12 56v14h-67v154zM1151 86v-86h-256l-377 504h-153v-418h180v-86h-467v86h188v1300h-188v89h287v-885h157l342 414h-184v83h461v-86h-166l-373 -446l359 -469h190z" />
    <glyph glyph-name="Lacute" unicode="&#x139;" horiz-adv-x="1265" 
d="M309 90v1253h-207v91h531v-91h-221v-1253h639v346h100v-436h-1049v90h207zM299 1552v11l203 239h155v-10l-276 -240h-82z" />
    <glyph glyph-name="lacute" unicode="&#x13a;" horiz-adv-x="636" 
d="M565 0h-475v86h189v1300h-189v89h289v-1389h186v-86zM242 1559v10l202 239h156v-10l-276 -239h-82z" />
    <glyph glyph-name="Lcommaaccent" unicode="&#x13b;" horiz-adv-x="1265" 
d="M309 90v1253h-207v91h531v-91h-221v-1253h639v346h100v-436h-1049v90h207zM573 -143h146v-148q0 -66 -31 -104l-139 -187l-41 29l121 186q12 18 12 56v14h-68v154z" />
    <glyph glyph-name="lcommaaccent" unicode="&#x13c;" horiz-adv-x="636" 
d="M565 0h-475v86h189v1300h-189v89h289v-1389h186v-86zM258 -143h145v-148q0 -66 -30 -104l-140 -187l-40 29l120 186q12 18 13 56v14h-68v154z" />
    <glyph glyph-name="Lcaron" unicode="&#x13d;" horiz-adv-x="1265" 
d="M758 1434h127v-158q0 -111 -35 -182l-64 -164l-41 14l46 184q6 34 6 52t-6 49l-33 166v39zM309 90v1253h-207v91h531v-91h-221v-1253h639v346h100v-436h-1049v90h207z" />
    <glyph glyph-name="lcaron" unicode="&#x13e;" horiz-adv-x="700" 
d="M543 1473h127v-158q0 -111 -35 -182l-64 -164l-41 14l45 184q10 56 0 101l-32 166v39zM565 0h-475v86h189v1300h-189v89h289v-1389h186v-86z" />
    <glyph glyph-name="Ldot" unicode="&#x13f;" horiz-adv-x="1267" 
d="M309 90v1253h-207v91h531v-91h-221v-1253h639v346h100v-436h-1049v90h207zM934 737v170h129v-170h-129z" />
    <glyph glyph-name="ldot" unicode="&#x140;" horiz-adv-x="698" 
d="M565 0h-475v86h189v1300h-189v89h289v-1389h186v-86zM614 590v170h129v-170h-129z" />
    <glyph glyph-name="Lslash" unicode="&#x141;" horiz-adv-x="1312" 
d="M332 90v582l-207 -60v93l207 59v579h-207v91h530v-91h-221v-548l387 112v-90l-387 -115v-612h639v346h101v-436h-1049v90h207z" />
    <glyph glyph-name="lslash" unicode="&#x142;" horiz-adv-x="636" 
d="M565 0h-475v86h189v623l-189 -56v92l189 54v587h-189v89h289v-648l186 56v-90l-186 -56v-651h186v-86z" />
    <glyph glyph-name="Nacute" unicode="&#x143;" horiz-adv-x="1562" 
d="M1184 121v1222h-219v91h520v-91h-205v-1345h-115q-55 0 -80 49l-657 1278h-20v-1235h221v-90h-527v90h207v1253h-207v91h328q33 0 49 -10t31 -40l651 -1263h23zM694 1575v10l203 240h156v-10l-277 -240h-82z" />
    <glyph glyph-name="nacute" unicode="&#x144;" horiz-adv-x="1314" 
d="M588 1231v10l203 240h155v-11l-276 -239h-82zM379 1087v-155q121 96 182 127t158 31h117q135 0 187 -54t52 -192v-758h187v-86h-465v86h180v752q0 94 -35 129t-133 34h-113q-82 -1 -144 -27t-173 -108v-780h180v-86h-467v86h189v915h-189v86h287z" />
    <glyph glyph-name="Ncommaaccent" unicode="&#x145;" horiz-adv-x="1562" 
d="M1184 121v1222h-219v91h520v-91h-205v-1345h-115q-55 0 -80 49l-657 1278h-20v-1235h221v-90h-527v90h207v1253h-207v91h328q33 0 49 -10t31 -40l651 -1263h23zM715 -143h145v-148q0 -66 -31 -104l-139 -187l-41 29l121 186q12 18 12 56v14h-67v154z" />
    <glyph glyph-name="ncommaaccent" unicode="&#x146;" horiz-adv-x="1314" 
d="M608 -143h146v-148q0 -66 -31 -104l-139 -187l-41 29l121 186q12 18 12 56v14h-68v154zM379 1087v-155q121 96 182 127t158 31h117q135 0 187 -54t52 -192v-758h187v-86h-465v86h180v752q0 94 -35 129t-133 34h-113q-82 -1 -144 -27t-173 -108v-780h180v-86h-467v86h189
v915h-189v86h287z" />
    <glyph glyph-name="Ncaron" unicode="&#x147;" horiz-adv-x="1562" 
d="M457 1839h75l250 -180l252 180h74v-10l-270 -248h-111l-270 248v10zM1184 121v1222h-219v91h520v-91h-205v-1345h-115q-55 0 -80 49l-657 1278h-20v-1235h221v-90h-527v90h207v1253h-207v91h328q33 0 49 -10t31 -40l651 -1263h23z" />
    <glyph glyph-name="ncaron" unicode="&#x148;" horiz-adv-x="1314" 
d="M350 1495h76l250 -180l252 180h73v-10l-270 -248h-110l-271 248v10zM379 1087v-155q121 96 182 127t158 31h117q135 0 187 -54t52 -192v-758h187v-86h-465v86h180v752q0 94 -35 129t-133 34h-113q-82 -1 -144 -27t-173 -108v-780h180v-86h-467v86h189v915h-189v86h287z
" />
    <glyph glyph-name="Omacron" unicode="&#x14c;" horiz-adv-x="1445" 
d="M293 717q0 -323 15 -437t52 -151t150 -37h426q114 0 150 37t52 152q15 115 15 437t-15 436q-14 114 -52 151t-150 36h-426q-113 -1 -150 -37t-52 -150t-15 -437zM496 1434h454q156 0 212 -58t78 -185q22 -128 22 -474t-22 -474t-77 -186q-57 -57 -213 -57h-454
q-156 0 -213 57q-55 57 -77 185t-22 475q0 346 22 474q22 127 78 185t212 58zM430 1593v86h582v-86h-582z" />
    <glyph glyph-name="omacron" unicode="&#x14d;" horiz-adv-x="1183" 
d="M477 999q-121 0 -159 -39q-38 -40 -52 -120t-14 -296t14 -297t53 -120t158 -39h228q121 0 159 38t52 120q16 82 16 298t-16 298q-15 82 -52 120t-159 37h-228zM471 0q-166 0 -223 57q-58 57 -78 155t-20 333q0 236 20 332t78 153t223 57h242q164 0 221 -57
q58 -57 78 -153t20 -332t-20 -333q-20 -96 -78 -154t-221 -58h-242zM299 1249v86h582v-86h-582z" />
    <glyph glyph-name="Obreve" unicode="&#x14e;" horiz-adv-x="1445" 
d="M721 1663q213 0 244 176h67q-10 -123 -90 -193t-221 -69q-141 0 -221 70t-90 192h67q31 -176 244 -176zM293 717q0 -323 15 -437t52 -151t150 -37h426q114 0 150 37t52 152q15 115 15 437t-15 436q-14 114 -52 151t-150 36h-426q-113 -1 -150 -37t-52 -150t-15 -437z
M496 1434h454q156 0 212 -58t78 -185q22 -128 22 -474t-22 -474t-77 -186q-57 -57 -213 -57h-454q-156 0 -213 57q-55 57 -77 185t-22 475q0 346 22 474q22 127 78 185t212 58z" />
    <glyph glyph-name="obreve" unicode="&#x14f;" horiz-adv-x="1183" 
d="M590 1319q213 0 244 176h67q-10 -123 -90 -193t-221 -69q-141 0 -221 70t-90 192h67q31 -176 244 -176zM477 999q-121 0 -159 -39q-38 -40 -52 -120t-14 -296t14 -297t53 -120t158 -39h228q121 0 159 38t52 120q16 82 16 298t-16 298q-15 82 -52 120t-159 37h-228zM471 0
q-166 0 -223 57q-58 57 -78 155t-20 333q0 236 20 332t78 153t223 57h242q164 0 221 -57q58 -57 78 -153t20 -332t-20 -333q-20 -96 -78 -154t-221 -58h-242z" />
    <glyph glyph-name="Ohungarumlaut" unicode="&#x150;" horiz-adv-x="1445" 
d="M293 717q0 -323 15 -437t52 -151t150 -37h426q114 0 150 37t52 152q15 115 15 437t-15 436q-14 114 -52 151t-150 36h-426q-113 -1 -150 -37t-52 -150t-15 -437zM496 1434h454q156 0 212 -58t78 -185q22 -128 22 -474t-22 -474t-77 -186q-57 -57 -213 -57h-454
q-156 0 -213 57q-55 57 -77 185t-22 475q0 346 22 474q22 127 78 185t212 58zM840 1575v10l202 240h150v-10l-274 -240h-78zM516 1575v10l201 240h149v-10l-272 -240h-78z" />
    <glyph glyph-name="ohungarumlaut" unicode="&#x151;" horiz-adv-x="1183" 
d="M477 999q-121 0 -159 -39q-38 -40 -52 -120t-14 -296t14 -297t53 -120t158 -39h228q121 0 159 38t52 120q16 82 16 298t-16 298q-15 82 -52 120t-159 37h-228zM471 0q-166 0 -223 57q-58 57 -78 155t-20 333q0 236 20 332t78 153t223 57h242q164 0 221 -57
q58 -57 78 -153t20 -332t-20 -333q-20 -96 -78 -154t-221 -58h-242zM709 1231v10l202 240h150v-11l-275 -239h-77zM385 1231v10l201 240h149v-11l-272 -239h-78z" />
    <glyph glyph-name="OE" unicode="&#x152;" horiz-adv-x="2070" 
d="M1911 0h-1342q-180 0 -254 74t-108 215q-35 141 -35 428t35 428t109 215t253 74h1334v-410h-101v319h-676v-552h502v-91h-502v-610h684v342h101v-432zM573 90h451v1253h-451q-129 0 -186 -57q-106 -106 -106 -569t106 -570q57 -57 186 -57z" />
    <glyph glyph-name="oe" unicode="&#x153;" horiz-adv-x="1941" 
d="M1694 592q0 182 -16 258q-15 76 -48 111q-43 41 -162 40h-208q-121 0 -159 -38q-38 -37 -52 -111t-17 -260h662zM477 999q-121 0 -159 -39q-38 -40 -52 -120t-14 -296t14 -297t53 -120t158 -39h228q121 0 159 38t52 120q16 82 16 298t-16 298q-15 82 -52 120t-159 37
h-228zM1505 0h-245q-162 0 -224 61q-37 37 -55 84q-14 -47 -53 -84q-61 -61 -223 -61h-234q-166 0 -223 57q-58 57 -78 155t-20 333q0 236 20 332t78 153t223 57h234q162 0 223 -59q39 -43 53 -86q16 45 55 86q61 59 224 59h215q166 0 222 -56q57 -56 77 -153t20 -323v-20
q0 -25 -25 -25h-737q2 -196 16 -272t52 -113q37 -37 160 -37h231q117 0 159 42t48 200h96q-2 -121 -19 -177t-57 -96q-57 -57 -213 -57z" />
    <glyph glyph-name="Racute" unicode="&#x154;" horiz-adv-x="1439" 
d="M412 743h456q106 0 154 48q63 63 63 257t-61 257q-39 39 -152 38h-460v-600zM1409 90v-90h-219q-54 0 -74 19t-27 79t-15 262t-54 250q-47 48 -166 47h-442v-567h219v-90h-529v90h207v1253h-207v91h791q152 0 211 -62q44 -45 66 -114t22 -227t-47 -231t-150 -100v-4
q101 -20 139 -84t47 -266t15 -256h213zM614 1575v10l203 240h156v-10l-277 -240h-82z" />
    <glyph glyph-name="racute" unicode="&#x155;" horiz-adv-x="858" 
d="M354 1231v10l203 240h156v-11l-277 -239h-82zM379 86h188v-86h-475v86h189v915h-189v86h287v-188q117 123 168 157t123 34h125v-103h-133q-66 0 -120 -28t-163 -121v-752z" />
    <glyph glyph-name="Rcommaaccent" unicode="&#x156;" horiz-adv-x="1439" 
d="M412 743h456q106 0 154 48q63 63 63 257t-61 257q-39 39 -152 38h-460v-600zM1409 90v-90h-219q-54 0 -74 19t-27 79t-15 262t-54 250q-47 48 -166 47h-442v-567h219v-90h-529v90h207v1253h-207v91h791q152 0 211 -62q44 -45 66 -114t22 -227t-47 -231t-150 -100v-4
q101 -20 139 -84t47 -266t15 -256h213zM676 -143h145v-148q0 -66 -30 -104l-140 -187l-41 29l121 186q12 18 12 56v14h-67v154z" />
    <glyph glyph-name="rcommaaccent" unicode="&#x157;" horiz-adv-x="854" 
d="M254 -143h145v-148q0 -66 -30 -104l-140 -187l-41 29l121 186q12 18 13 56v14h-68v154zM379 86h188v-86h-475v86h189v915h-189v86h287v-188q117 123 168 157t123 34h125v-103h-133q-66 0 -120 -28t-163 -121v-752z" />
    <glyph glyph-name="Rcaron" unicode="&#x158;" horiz-adv-x="1439" 
d="M377 1839h76l249 -180l252 180h74v-10l-270 -248h-111l-270 248v10zM412 743h456q106 0 154 48q63 63 63 257t-61 257q-39 39 -152 38h-460v-600zM1409 90v-90h-219q-54 0 -74 19t-27 79t-15 262t-54 250q-47 48 -166 47h-442v-567h219v-90h-529v90h207v1253h-207v91h791
q152 0 211 -62q44 -45 66 -114t22 -227t-47 -231t-150 -100v-4q101 -20 139 -84t47 -266t15 -256h213z" />
    <glyph glyph-name="rcaron" unicode="&#x159;" horiz-adv-x="854" 
d="M119 1495h76l249 -180l252 180h74v-10l-270 -248h-111l-270 248v10zM379 86h188v-86h-475v86h189v915h-189v86h287v-188q117 123 168 157t123 34h125v-103h-133q-66 0 -120 -28t-163 -121v-752z" />
    <glyph glyph-name="Sacute" unicode="&#x15a;" horiz-adv-x="1370" 
d="M1194 380q0 -134 -19 -204t-65 -115q-57 -61 -201 -61h-460q-141 0 -193 50t-67 118t-15 250h102q2 -156 12 -209t43 -85q32 -32 128 -32h440q98 0 143 44t45 243q0 117 -8 159t-40 74t-152 41l-414 41q-160 16 -213 70q-35 35 -50 98t-15 195q0 233 81 315q61 61 199 62
h416q141 0 201 -58q43 -46 57 -112t16 -236h-102q-2 140 -11 194t-42 87t-129 32h-394q-98 0 -143 -45t-45 -237q0 -109 9 -151t40 -72t152 -41l413 -41q160 -16 213 -70q36 -38 52 -104t16 -200zM596 1575v10l203 240h155v-10l-276 -240h-82z" />
    <glyph glyph-name="sacute" unicode="&#x15b;" horiz-adv-x="1103" 
d="M156 801q0 170 67 237q49 49 160 49h332q119 0 170 -47q33 -33 47 -86t14 -176h-94q-2 98 -10 135t-35 64t-107 27h-303q-69 0 -107 -38t-38 -162t30 -154t136 -40l301 -26q139 -12 188 -60t49 -228q0 -179 -67 -247q-49 -49 -158 -49h-356q-123 0 -165 43t-55 94
t-14 182h95q2 -106 10 -144q8 -37 34 -63t107 -26h328q73 0 109 37t36 169t-29 161t-135 39l-299 28q-145 14 -193 62t-48 219zM463 1231v10l203 240h155v-11l-276 -239h-82z" />
    <glyph glyph-name="Scedilla" unicode="&#x15e;" horiz-adv-x="1370" 
d="M696 -86q96 0 131 -35t35 -121t-35 -121t-133 -34h-131l-69 51v18h194q55 0 74 17q18 18 18 70t-18 71q-23 16 -74 16h-104v68h112zM1194 380q0 -134 -19 -204t-65 -115q-57 -61 -201 -61h-460q-141 0 -193 50t-67 118t-15 250h102q2 -156 12 -209t43 -85q32 -32 128 -32
h440q98 0 143 44t45 243q0 117 -8 159t-40 74t-152 41l-414 41q-160 16 -213 70q-35 35 -50 98t-15 195q0 233 81 315q61 61 199 62h416q141 0 201 -58q43 -46 57 -112t16 -236h-102q-2 140 -11 194t-42 87t-129 32h-394q-98 0 -143 -45t-45 -237q0 -109 9 -151t40 -72
t152 -41l413 -41q160 -16 213 -70q36 -38 52 -104t16 -200z" />
    <glyph glyph-name="scedilla" unicode="&#x15f;" horiz-adv-x="1103" 
d="M561 -86q96 0 131 -35t35 -121t-35 -121t-133 -34h-131l-70 51v18h195q55 0 74 17q18 18 18 70t-18 71q-23 16 -74 16h-104v68h112zM156 801q0 170 67 237q49 49 160 49h332q119 0 170 -47q33 -33 47 -86t14 -176h-94q-2 98 -10 135t-35 64t-107 27h-303q-69 0 -107 -38
t-38 -162t30 -154t136 -40l301 -26q139 -12 188 -60t49 -228q0 -179 -67 -247q-49 -49 -158 -49h-356q-123 0 -165 43t-55 94t-14 182h95q2 -106 10 -144q8 -37 34 -63t107 -26h328q73 0 109 37t36 169t-29 161t-135 39l-299 28q-145 14 -193 62t-48 219z" />
    <glyph glyph-name="Scaron" unicode="&#x160;" horiz-adv-x="1370" 
d="M358 1839h76l250 -180l252 180h74v-10l-271 -248h-110l-271 248v10zM1194 380q0 -134 -19 -204t-65 -115q-57 -61 -201 -61h-460q-141 0 -193 50t-67 118t-15 250h102q2 -156 12 -209t43 -85q32 -32 128 -32h440q98 0 143 44t45 243q0 117 -8 159t-40 74t-152 41l-414 41
q-160 16 -213 70q-35 35 -50 98t-15 195q0 233 81 315q61 61 199 62h416q141 0 201 -58q43 -46 57 -112t16 -236h-102q-2 140 -11 194t-42 87t-129 32h-394q-98 0 -143 -45t-45 -237q0 -109 9 -151t40 -72t152 -41l413 -41q160 -16 213 -70q36 -38 52 -104t16 -200z" />
    <glyph glyph-name="scaron" unicode="&#x161;" horiz-adv-x="1103" 
d="M223 1495h76l250 -180l252 180h73v-10l-270 -248h-110l-271 248v10zM156 801q0 170 67 237q49 49 160 49h332q119 0 170 -47q33 -33 47 -86t14 -176h-94q-2 98 -10 135t-35 64t-107 27h-303q-69 0 -107 -38t-38 -162t30 -154t136 -40l301 -26q139 -12 188 -60t49 -228
q0 -179 -67 -247q-49 -49 -158 -49h-356q-123 0 -165 43t-55 94t-14 182h95q2 -106 10 -144q8 -37 34 -63t107 -26h328q73 0 109 37t36 169t-29 161t-135 39l-299 28q-145 14 -193 62t-48 219z" />
    <glyph glyph-name="Tcommaaccent" unicode="&#x162;" horiz-adv-x="1425" 
d="M764 90h217v-90h-537v90h218v1253h-439v-354h-100v445h1180v-445h-101v354h-438v-1253zM641 -143h145v-148q0 -66 -30 -104l-140 -187l-41 29l121 186q12 18 13 56v14h-68v154z" />
    <glyph glyph-name="tcommaaccent" unicode="&#x163;" horiz-adv-x="768" 
d="M676 84v-66l-78 -14q-86 -12 -170 -12t-133 49t-49 174v786h-178v86h178v275h98v-275h334v-86h-334v-774q0 -87 29 -115t110 -28h193zM348 -143h146v-148q0 -66 -31 -104l-139 -187l-41 29l120 186q12 18 13 56v14h-68v154z" />
    <glyph glyph-name="Tcaron" unicode="&#x164;" horiz-adv-x="1425" 
d="M383 1839h76l250 -180l252 180h73v-10l-270 -248h-111l-270 248v10zM764 90h217v-90h-537v90h218v1253h-439v-354h-100v445h1180v-445h-101v354h-438v-1253z" />
    <glyph glyph-name="tcaron" unicode="&#x165;" horiz-adv-x="768" 
d="M508 1724h127v-157q0 -111 -35 -183l-63 -163l-41 14l45 184q6 35 6 52t-6 49l-33 166v38zM676 84v-66l-78 -14q-86 -12 -170 -12t-133 49t-49 174v786h-178v86h178v275h98v-275h334v-86h-334v-774q0 -87 29 -115t110 -28h193z" />
    <glyph glyph-name="Umacron" unicode="&#x16a;" horiz-adv-x="1570" 
d="M494 1593v86h581v-86h-581zM1188 1343h-223v91h528v-91h-203v-768q0 -243 -22 -351t-82 -166t-246 -58h-311q-185 0 -245 59t-82 165t-21 351v768h-203v91h528v-91h-223v-776q0 -360 72 -432q43 -43 186 -43h291q141 0 181 40t57 132t18 303v776z" />
    <glyph glyph-name="umacron" unicode="&#x16b;" horiz-adv-x="1294" 
d="M336 1249v86h582v-86h-582zM936 0v156q-121 -96 -183 -127t-157 -31h-115q-80 0 -119 12t-69 43q-53 51 -53 193v755h-185v86h283v-837q0 -94 35 -129t135 -35h110q82 0 144 27t174 106v782h-201v86h301v-1001h187v-86h-287z" />
    <glyph glyph-name="Ubreve" unicode="&#x16c;" horiz-adv-x="1570" 
d="M784 1663q213 0 244 176h68q-10 -123 -90 -193t-222 -69q-142 0 -221 70q-80 70 -90 192h68q30 -176 243 -176zM1188 1343h-223v91h528v-91h-203v-768q0 -243 -22 -351t-82 -166t-246 -58h-311q-185 0 -245 59t-82 165t-21 351v768h-203v91h528v-91h-223v-776
q0 -360 72 -432q43 -43 186 -43h291q141 0 181 40t57 132t18 303v776z" />
    <glyph glyph-name="ubreve" unicode="&#x16d;" horiz-adv-x="1294" 
d="M627 1319q213 0 243 176h68q-10 -123 -90 -193t-221 -69q-141 0 -221 70t-91 192h68q31 -176 244 -176zM936 0v156q-121 -96 -183 -127t-157 -31h-115q-80 0 -119 12t-69 43q-53 51 -53 193v755h-185v86h283v-837q0 -94 35 -129t135 -35h110q82 0 144 27t174 106v782
h-201v86h301v-1001h187v-86h-287z" />
    <glyph glyph-name="Uring" unicode="&#x16e;" horiz-adv-x="1570" 
d="M1188 1343h-223v91h528v-91h-203v-768q0 -243 -22 -351t-82 -166t-246 -58h-311q-185 0 -245 59t-82 165t-21 351v768h-203v91h528v-91h-223v-776q0 -360 72 -432q43 -43 186 -43h291q141 0 181 40t57 132t18 303v776zM870 1591h-172q-96 0 -138 44q-42 45 -42 151
t45 158q39 41 135 41h172q96 0 138 -44t43 -153q-1 -109 -43 -153t-138 -44zM866 1921h-164q-53 0 -77 -23q-29 -32 -29 -112t27 -106t79 -25h164q53 -1 80 25t27 106t-29 112q-25 23 -78 23z" />
    <glyph glyph-name="uring" unicode="&#x16f;" horiz-adv-x="1294" 
d="M709 1577h-164q-53 0 -78 -23q-29 -32 -29 -112t27 -106t80 -25h164q53 -1 79 25t27 106q-1 80 -27 108t-79 27zM713 1247h-172q-96 0 -138 44q-43 45 -43 151t42 152t139 46h172q96 0 138 -44t42 -152t-42 -153q-42 -44 -138 -44zM936 0v156q-121 -96 -183 -127
t-157 -31h-115q-80 0 -119 12t-69 43q-53 51 -53 193v755h-185v86h283v-837q0 -94 35 -129t135 -35h110q82 0 144 27t174 106v782h-201v86h301v-1001h187v-86h-287z" />
    <glyph glyph-name="Uhungarumlaut" unicode="&#x170;" horiz-adv-x="1570" 
d="M901 1575v10l203 240h149v-10l-274 -240h-78zM578 1575v10l200 240h150v-10l-273 -240h-77zM1188 1343h-223v91h528v-91h-203v-768q0 -243 -22 -351t-82 -166t-246 -58h-311q-185 0 -245 59t-82 165t-21 351v768h-203v91h528v-91h-223v-776q0 -360 72 -432
q43 -43 186 -43h291q141 0 181 40t57 132t18 303v776z" />
    <glyph glyph-name="uhungarumlaut" unicode="&#x171;" horiz-adv-x="1294" 
d="M422 1231v10l201 240h149v-11l-272 -239h-78zM745 1231v10l203 240h150v-11l-275 -239h-78zM936 0v156q-121 -96 -183 -127t-157 -31h-115q-80 0 -119 12t-69 43q-53 51 -53 193v755h-185v86h283v-837q0 -94 35 -129t135 -35h110q82 0 144 27t174 106v782h-201v86h301
v-1001h187v-86h-287z" />
    <glyph glyph-name="Uogonek" unicode="&#x172;" horiz-adv-x="1570" 
d="M1188 1343h-223v91h528v-91h-203v-768q0 -243 -22 -351t-82 -166t-246 -58h-102q-61 -57 -88 -94t-27 -116t18 -97q20 -16 56 -17h67q33 0 54 17q18 18 18 121h80q0 -86 -8 -124t-34 -63t-97 -24h-97q-74 1 -108 33t-33 130q0 98 25 138q25 41 90 96h-125q-185 0 -245 59
t-82 165t-21 351v768h-203v91h528v-91h-223v-776q0 -360 72 -432q43 -43 186 -43h291q141 0 181 40t57 132t18 303v776z" />
    <glyph glyph-name="uogonek" unicode="&#x173;" horiz-adv-x="1294" 
d="M1114 -186h80q0 -86 -8 -124t-34 -63t-97 -24h-97q-74 1 -108 33t-33 130q0 98 26 139q26 42 93 97v154q-121 -96 -183 -127t-157 -31h-115q-80 0 -119 12t-69 43q-53 51 -53 193v755h-185v86h283v-837q0 -94 35 -129t135 -35h110q82 0 144 27t174 106v782h-201v86h301
v-1001h187v-86h-207q-61 -57 -88 -94t-27 -116t19 -97q20 -16 55 -17h67q33 0 54 17q18 19 18 121z" />
    <glyph glyph-name="Wcircumflex" unicode="&#x174;" horiz-adv-x="2127" 
d="M741 1581v10l271 248h110l271 -248v-10h-76l-252 178l-250 -178h-74zM1092 1440q41 0 58 -12t24 -44l305 -1292h39l270 1251h-207v91h487v-91h-184l-289 -1296q-6 -31 -23 -42t-59 -11h-45q-41 0 -57 11t-25 44l-303 1290h-36l-306 -1290q-6 -33 -22 -44t-57 -11h-48
q-39 0 -56 11t-26 42l-288 1296h-185v91h494v-91h-205l270 -1251h39l306 1292q6 33 23 44t58 12h48z" />
    <glyph glyph-name="wcircumflex" unicode="&#x175;" horiz-adv-x="1701" 
d="M524 1237v10l271 248h110l271 -248v-10h-76l-252 178l-250 -178h-74zM883 1090q29 0 40 -10t19 -40l234 -950h28l211 911h-168v86h414v-86h-152l-233 -958q-6 -29 -18 -39t-41 -10h-60q-29 0 -41 10t-18 39l-232 940h-26l-234 -940q-6 -29 -17 -39t-40 -10h-62
q-29 0 -39 9t-18 40l-233 958h-152v86h420v-86h-168l211 -911h27l233 950q8 29 20 39t39 11h56z" />
    <glyph glyph-name="Ycircumflex" unicode="&#x176;" horiz-adv-x="1417" 
d="M385 1581v10l270 248h111l270 -248v-10h-75l-252 178l-250 -178h-74zM33 1343v91h510v-88h-207l371 -644h10l375 644h-205v88h495v-91h-186l-438 -737v-516h217v-90h-537v90h219v514l-438 739h-186z" />
    <glyph glyph-name="ycircumflex" unicode="&#x177;" horiz-adv-x="1228" 
d="M299 1237v10l270 248h111l270 -248v-10h-76l-251 178l-250 -178h-74zM772 1001v86h422v-86h-152l-434 -1202q-20 -63 -56 -87q-61 -41 -306 -9v78h198q57 0 76 53l58 160l-388 1007h-151v86h428v-86h-168l324 -876h8l309 876h-168z" />
    <glyph glyph-name="Ydieresis" unicode="&#x178;" horiz-adv-x="1417" 
d="M836 1665v168h127v-168h-127zM459 1665v168h127v-168h-127zM33 1343v91h510v-88h-207l371 -644h10l375 644h-205v88h495v-91h-186l-438 -737v-516h217v-90h-537v90h219v514l-438 739h-186z" />
    <glyph glyph-name="Zacute" unicode="&#x179;" horiz-adv-x="1329" 
d="M1092 88v334h98v-422h-1051v70l926 1276h-784v-324h-101v412h1020v-70l-924 -1276h816zM582 1575v10l202 240h156v-10l-276 -240h-82z" />
    <glyph glyph-name="zacute" unicode="&#x17a;" horiz-adv-x="1110" 
d="M893 86v266h94v-352h-885v68l758 936h-631v-261h-94v344h858v-65l-757 -936h657zM463 1231v10l203 240h155v-11l-276 -239h-82z" />
    <glyph glyph-name="Zdotaccent" unicode="&#x17b;" horiz-adv-x="1329" 
d="M608 1663v170h127v-170h-127zM1092 88v334h98v-422h-1051v70l926 1276h-784v-324h-101v412h1020v-70l-924 -1276h816z" />
    <glyph glyph-name="zdotaccent" unicode="&#x17c;" horiz-adv-x="1110" 
d="M489 1319v170h127v-170h-127zM893 86v266h94v-352h-885v68l758 936h-631v-261h-94v344h858v-65l-757 -936h657z" />
    <glyph glyph-name="Zcaron" unicode="&#x17d;" horiz-adv-x="1329" 
d="M344 1839h76l250 -180l252 180h73v-10l-270 -248h-111l-270 248v10zM1092 88v334h98v-422h-1051v70l926 1276h-784v-324h-101v412h1020v-70l-924 -1276h816z" />
    <glyph glyph-name="zcaron" unicode="&#x17e;" horiz-adv-x="1110" 
d="M225 1495h76l250 -180l252 180h74v-10l-271 -248h-110l-271 248v10zM893 86v266h94v-352h-885v68l758 936h-631v-261h-94v344h858v-65l-757 -936h657z" />
    <glyph glyph-name="Aringacute" unicode="&#x1fa;" horiz-adv-x="1529" 
d="M688 1886v10l203 240h156v-10l-277 -240h-82zM846 1704h-164q-53 0 -78 -23q-29 -33 -29 -113t27 -105q27 -26 80 -25h164q53 0 80 26q26 26 26 105q0 80 -28 112q-25 23 -78 23zM737 1348l-239 -754h526l-240 754h-47zM553 90v-90h-502v90h182l416 1284q-71 2 -111 45
t-40 149t42 153q42 46 138 46h172q96 0 138 -44q42 -45 42 -153t-39 -149t-112 -47l417 -1284h183v-90h-510v90h217l-133 416l-584 -2l-133 -414h217z" />
    <glyph glyph-name="aringacute" unicode="&#x1fb;" horiz-adv-x="1210" 
d="M512 1763v11l203 239h155v-10l-276 -240h-82zM672 1577h-164q-53 0 -78 -23q-29 -32 -29 -112t27 -106t80 -25h164q53 -1 80 25q26 26 26 106t-28 112q-25 23 -78 23zM676 1247h-172q-96 0 -138 44q-42 45 -42 151t42 152t138 46h172q96 0 138 -44t42 -152t-42 -153
q-42 -44 -138 -44zM545 84q84 0 146 27t167 100v321h-381q-88 0 -127 -10t-63 -37q-45 -43 -45 -180t44 -179t144 -42h115zM858 821q0 115 -37 150q-27 31 -127 30h-196q-119 1 -163 -43t-46 -188h-99q2 109 19 165q16 56 53 93q61 59 217 59h226q145 0 198 -53t53 -211
v-737h185v-86h-283v145q-109 -87 -172 -117t-156 -30h-114q-145 0 -210 64t-65 240q0 175 68 243t274 67q139 0 375 -16v225z" />
    <glyph glyph-name="AEacute" unicode="&#x1fc;" horiz-adv-x="2107" 
d="M1210 1575v10l203 240h156v-10l-277 -240h-82zM1059 1348h-17l-444 -754h461v754zM852 88h207v418h-514l-246 -418h221v-88h-497v90h170l743 1253h-246v91h1247v-410h-100v319h-676v-552h502v-91h-502v-610h682v342h101v-432h-1092v88z" />
    <glyph glyph-name="aeacute" unicode="&#x1fd;" horiz-adv-x="1863" 
d="M821 1231v10l203 240h156v-11l-277 -239h-82zM1178 1001q-119 0 -157 -37q-38 -36 -50 -108t-15 -258h662q-2 182 -16 255t-52 111t-159 37h-213zM858 526h-381q-88 0 -127 -10t-63 -35q-45 -45 -45 -179t44 -176t144 -42h115q88 0 152 28t177 111q-16 90 -16 303z
M1184 1087h215q166 0 222 -56q57 -56 77 -151t20 -319v-22q0 -25 -24 -25h-738q0 -200 14 -276t53 -113q38 -37 159 -37h233q117 0 156 41q47 43 49 201h98q-4 -123 -20 -178t-56 -95q-57 -57 -212 -57h-252q-166 0 -226 61q-45 41 -63 107q-129 -104 -195 -137t-162 -33
h-116q-146 0 -210 64t-65 237q0 172 68 240q68 67 260 67t389 -16v231q0 115 -37 150q-27 31 -127 30h-196q-119 1 -163 -43t-46 -188h-99q2 109 19 165q16 56 53 93q61 59 217 59h211q147 0 201 -53q20 -23 33 -55q52 108 260 108z" />
    <glyph glyph-name="Oslashacute" unicode="&#x1fe;" horiz-adv-x="1445" 
d="M631 1575v10l203 240h155v-10l-276 -240h-82zM293 717q0 -323 15 -437t50 -149q10 -12 31 -22l578 1232h-457q-113 -1 -150 -37t-52 -150t-15 -437zM936 92q114 0 150 37t52 152q15 115 15 437q1 322 -15 436t-51 149q-23 18 -32 22l-578 -1233h459zM1262 717
q0 -346 -22 -474t-77 -186q-57 -57 -213 -57h-454q-45 0 -64 2l-51 -111h-96l59 125q-39 14 -61 41q-55 57 -77 185t-22 475q0 346 22 474q22 127 78 185t212 58h454l60 -2l53 110h96l-59 -127q31 -10 63 -39q55 -57 77 -185t22 -474z" />
    <glyph glyph-name="oslashacute" unicode="&#x1ff;" horiz-adv-x="1183" 
d="M502 1231v10l203 240h155v-11l-276 -239h-82zM477 999q-121 0 -159 -39q-38 -40 -52 -120t-14 -296t14 -300t62 -127l440 880l-63 2h-228zM477 88h228q121 0 159 38t52 120q16 82 16 298t-16 298t-50 116l-20 17l-440 -885q18 -2 71 -2zM471 0q-78 0 -109 6l-55 -108h-96
l70 135q-18 10 -35 28q-56 53 -76 151t-20 333q0 236 20 332t78 153t223 57h242q55 0 98 -6l63 127h97l-78 -149q88 -38 119 -182q20 -96 20 -332t-20 -333q-20 -96 -78 -154t-221 -58h-242z" />
    <glyph glyph-name="Scommaaccent" unicode="&#x218;" horiz-adv-x="1370" 
d="M1194 380q0 -134 -19 -204t-65 -115q-57 -61 -201 -61h-460q-141 0 -193 50t-67 118t-15 250h102q2 -156 12 -209t43 -85q32 -32 128 -32h440q98 0 143 44t45 243q0 117 -8 159t-40 74t-152 41l-414 41q-160 16 -213 70q-35 35 -50 98t-15 195q0 233 81 315q61 61 199 62
h416q141 0 201 -58q43 -46 57 -112t16 -236h-102q-2 140 -11 194t-42 87t-129 32h-394q-98 0 -143 -45t-45 -237q0 -109 9 -151t40 -72t152 -41l413 -41q160 -16 213 -70q36 -38 52 -104t16 -200zM616 -143h146v-148q0 -66 -31 -104l-139 -187l-41 29l121 186q12 18 12 56
v14h-68v154z" />
    <glyph glyph-name="scommaaccent" unicode="&#x219;" horiz-adv-x="1103" 
d="M156 801q0 170 67 237q49 49 160 49h332q119 0 170 -47q33 -33 47 -86t14 -176h-94q-2 98 -10 135t-35 64t-107 27h-303q-69 0 -107 -38t-38 -162t30 -154t136 -40l301 -26q139 -12 188 -60t49 -228q0 -179 -67 -247q-49 -49 -158 -49h-356q-123 0 -165 43t-55 94
t-14 182h95q2 -106 10 -144q8 -37 34 -63t107 -26h328q73 0 109 37t36 169t-29 161t-135 39l-299 28q-145 14 -193 62t-48 219zM481 -143h146v-148q0 -66 -31 -104l-139 -187l-41 29l121 186q12 18 12 56v14h-68v154z" />
    <glyph glyph-name="schwa" unicode="&#x259;" horiz-adv-x="1159" 
d="M475 86h209q119 0 157 38t53 112t17 260h-663q2 -184 16 -259t52 -113t159 -38zM147 553q0 25 25 25h739q-2 196 -17 272t-52 112t-158 37h-233q-117 0 -156 -41q-47 -43 -49 -200h-99q4 123 21 178q16 55 55 94q57 57 215 57h252q166 0 223 -57t77 -154t22 -333
q0 -236 -20 -332q-20 -95 -78 -153t-224 -58h-223q-166 0 -222 56q-57 56 -77 154t-21 322v21z" />
    <glyph glyph-name="circumflex" unicode="&#x2c6;" 
d="M186 1237v10l271 248h110l271 -248v-10h-76l-252 178l-250 -178h-74z" />
    <glyph glyph-name="caron" unicode="&#x2c7;" 
d="M186 1495h76l250 -180l252 180h74v-10l-271 -248h-110l-271 248v10z" />
    <glyph glyph-name="breve" unicode="&#x2d8;" 
d="M512 1319q213 0 244 176h67q-10 -123 -90 -193t-221 -69q-141 0 -221 70t-90 192h67q31 -176 244 -176z" />
    <glyph glyph-name="dotaccent" unicode="&#x2d9;" 
d="M449 1319v170h126v-170h-126z" />
    <glyph glyph-name="ring" unicode="&#x2da;" 
d="M598 1247h-172q-96 0 -138 44q-42 45 -42 151t42 152t138 46h172q96 0 138 -44t42 -152t-42 -153q-42 -44 -138 -44zM594 1577h-164q-53 0 -78 -23q-28 -32 -28 -112t26 -106t80 -25h164q53 -1 80 25q26 26 26 106t-28 112q-25 23 -78 23z" />
    <glyph glyph-name="ogonek" unicode="&#x2db;" 
d="M623 -186h79q0 -86 -8 -124t-34 -63t-97 -24h-96q-73 1 -107 33t-34 130t30 145q30 48 150 142l41 -35q-78 -68 -108 -108q-29 -40 -29 -120q0 -79 18 -97q20 -16 55 -17h68q33 0 53 17q19 19 19 121z" />
    <glyph glyph-name="tilde" unicode="&#x2dc;" 
d="M219 1264v139q0 49 16 67t52 19h16q35 0 94 -25l320 -127l33 148h55v-139q0 -50 -16 -68t-52 -18h-16q-35 0 -94 24l-320 127l-33 -147h-55z" />
    <glyph glyph-name="hungarumlaut" unicode="&#x2dd;" 
d="M487 1231v10l203 240h150v-11l-275 -239h-78zM164 1231v10l201 240h149v-11l-272 -239h-78z" />
    <glyph glyph-name="commaaccent" unicode="&#x326;" 
d="M457 -143h145v-148q0 -66 -31 -104l-139 -187l-41 29l121 186q12 18 12 56v14h-67v154z" />
    <glyph glyph-name="Wgrave" unicode="&#x1e80;" horiz-adv-x="2127" 
d="M1155 1575h-82l-276 240v10h155l203 -240v-10zM1092 1440q41 0 58 -12t24 -44l305 -1292h39l270 1251h-207v91h487v-91h-184l-289 -1296q-6 -31 -23 -42t-59 -11h-45q-41 0 -57 11t-25 44l-303 1290h-36l-306 -1290q-6 -33 -22 -44t-57 -11h-48q-39 0 -56 11t-26 42
l-288 1296h-185v91h494v-91h-205l270 -1251h39l306 1292q6 33 23 44t58 12h48z" />
    <glyph glyph-name="wgrave" unicode="&#x1e81;" horiz-adv-x="1701" 
d="M938 1231h-82l-276 239v11h155l203 -240v-10zM883 1090q29 0 40 -10t19 -40l234 -950h28l211 911h-168v86h414v-86h-152l-233 -958q-6 -29 -18 -39t-41 -10h-60q-29 0 -41 10t-18 39l-232 940h-26l-234 -940q-6 -29 -17 -39t-40 -10h-62q-29 0 -39 9t-18 40l-233 958
h-152v86h420v-86h-168l211 -911h27l233 950q8 29 20 39t39 11h56z" />
    <glyph glyph-name="Wacute" unicode="&#x1e82;" horiz-adv-x="2127" 
d="M1092 1440q41 0 58 -12t24 -44l305 -1292h39l270 1251h-207v91h487v-91h-184l-289 -1296q-6 -31 -23 -42t-59 -11h-45q-41 0 -57 11t-25 44l-303 1290h-36l-306 -1290q-6 -33 -22 -44t-57 -11h-48q-39 0 -56 11t-26 42l-288 1296h-185v91h494v-91h-205l270 -1251h39
l306 1292q6 33 23 44t58 12h48zM977 1575v10l203 240h155v-10l-276 -240h-82z" />
    <glyph glyph-name="wacute" unicode="&#x1e83;" horiz-adv-x="1701" 
d="M883 1090q29 0 40 -10t19 -40l234 -950h28l211 911h-168v86h414v-86h-152l-233 -958q-6 -29 -18 -39t-41 -10h-60q-29 0 -41 10t-18 39l-232 940h-26l-234 -940q-6 -29 -17 -39t-40 -10h-62q-29 0 -39 9t-18 40l-233 958h-152v86h420v-86h-168l211 -911h27l233 950
q8 29 20 39t39 11h56zM760 1231v10l203 240h155v-11l-276 -239h-82z" />
    <glyph glyph-name="Wdieresis" unicode="&#x1e84;" horiz-adv-x="2127" 
d="M1092 1440q41 0 58 -12t24 -44l305 -1292h39l270 1251h-207v91h487v-91h-184l-289 -1296q-6 -31 -23 -42t-59 -11h-45q-41 0 -57 11t-25 44l-303 1290h-36l-306 -1290q-6 -33 -22 -44t-57 -11h-48q-39 0 -56 11t-26 42l-288 1296h-185v91h494v-91h-205l270 -1251h39
l306 1292q6 33 23 44t58 12h48zM1192 1665v168h127v-168h-127zM815 1665v168h127v-168h-127z" />
    <glyph glyph-name="wdieresis" unicode="&#x1e85;" horiz-adv-x="1701" 
d="M883 1090q29 0 40 -10t19 -40l234 -950h28l211 911h-168v86h414v-86h-152l-233 -958q-6 -29 -18 -39t-41 -10h-60q-29 0 -41 10t-18 39l-232 940h-26l-234 -940q-6 -29 -17 -39t-40 -10h-62q-29 0 -39 9t-18 40l-233 958h-152v86h420v-86h-168l211 -911h27l233 950
q8 29 20 39t39 11h56zM975 1321v168h127v-168h-127zM598 1321v168h127v-168h-127z" />
    <glyph glyph-name="Ygrave" unicode="&#x1ef2;" horiz-adv-x="1417" 
d="M801 1575h-82l-277 240v10h156l203 -240v-10zM33 1343v91h510v-88h-207l371 -644h10l375 644h-205v88h495v-91h-186l-438 -737v-516h217v-90h-537v90h219v514l-438 739h-186z" />
    <glyph glyph-name="ygrave" unicode="&#x1ef3;" horiz-adv-x="1234" 
d="M715 1231h-82l-277 239v11h156l203 -240v-10zM772 1001v86h422v-86h-152l-434 -1202q-20 -63 -56 -87q-61 -41 -306 -9v78h198q57 0 76 53l58 160l-388 1007h-151v86h428v-86h-168l324 -876h8l309 876h-168z" />
    <glyph glyph-name="enspace" unicode="&#x2002;" 
 />
    <glyph glyph-name="emspace" unicode="&#x2003;" horiz-adv-x="2048" 
 />
    <glyph glyph-name="threeperemspace" unicode="&#x2004;" horiz-adv-x="681" 
 />
    <glyph glyph-name="fourperemspace" unicode="&#x2005;" horiz-adv-x="512" 
 />
    <glyph glyph-name="thinspace" unicode="&#x2009;" horiz-adv-x="272" 
 />
    <glyph glyph-name="hairspace" unicode="&#x200a;" horiz-adv-x="153" 
 />
    <glyph glyph-name="endash" unicode="&#x2013;" horiz-adv-x="1120" 
d="M985 604h-852v94h852v-94z" />
    <glyph glyph-name="emdash" unicode="&#x2014;" horiz-adv-x="2021" 
d="M1886 606h-1753v90h1753v-90z" />
    <glyph glyph-name="quoteleft" unicode="&#x2018;" horiz-adv-x="374" 
d="M258 956h-160v166q0 72 35 117l164 219l45 -31l-143 -221q-14 -20 -15 -61v-17h74v-172z" />
    <glyph glyph-name="quoteright" unicode="&#x2019;" horiz-adv-x="374" 
d="M117 1434h159v-166q0 -72 -34 -115l-166 -221l-43 33l143 219q14 23 14 61v19h-73v170z" />
    <glyph glyph-name="quotesinglbase" unicode="&#x201a;" horiz-adv-x="389" 
d="M115 170h159v-166q0 -72 -34 -115l-166 -221l-43 33l143 221q14 20 14 62v16h-73v170z" />
    <glyph glyph-name="quotedblleft" unicode="&#x201c;" horiz-adv-x="686" 
d="M569 956h-159v166q0 72 34 117l166 219l43 -31l-143 -221q-14 -20 -14 -61v-17h73v-172zM258 956h-160v166q0 72 35 117l164 219l45 -31l-143 -221q-14 -20 -15 -61v-17h74v-172z" />
    <glyph glyph-name="quotedblright" unicode="&#x201d;" horiz-adv-x="686" 
d="M117 1434h159v-166q0 -72 -34 -115l-166 -221l-43 33l143 219q14 23 14 61v19h-73v170zM428 1434h160v-166q0 -72 -35 -115l-166 -221l-43 33l143 219q14 23 15 61v19h-74v170z" />
    <glyph glyph-name="quotedblbase" unicode="&#x201e;" horiz-adv-x="700" 
d="M115 170h159v-166q0 -72 -34 -115l-166 -221l-43 33l143 221q14 20 14 62v16h-73v170zM426 170h160v-166q0 -72 -35 -115l-166 -221l-43 33l143 221q14 20 15 62v16h-74v170z" />
    <glyph glyph-name="dagger" unicode="&#x2020;" horiz-adv-x="1003" 
d="M559 762l-37 -522h-41l-35 522l31 254h49zM561 1434l-35 -279h-49l-33 279h117zM848 1141v-111l-275 33v45zM158 1141l272 -33v-45l-272 -33v111z" />
    <glyph glyph-name="daggerdbl" unicode="&#x2021;" horiz-adv-x="1011" 
d="M561 717l-31 -299h-49l-30 299l30 299h49zM565 0h-116l32 279h49zM852 293l-274 33v45l274 32v-110zM162 293v110l272 -32v-45zM565 1434l-35 -279h-49l-32 279h116zM852 1141v-111l-274 33v45zM162 1141l272 -33v-45l-272 -33v111z" />
    <glyph glyph-name="bullet" unicode="&#x2022;" horiz-adv-x="919" 
d="M391 514q-73 0 -109 36t-36 194t36 193q36 36 109 36h137q74 0 110 -36t36 -194q0 -157 -36 -193t-110 -36h-137z" />
    <glyph glyph-name="ellipsis" unicode="&#x2026;" horiz-adv-x="1134" 
d="M870 168h148v-168h-148v168zM494 168h149v-168h-149v168zM119 168h147v-168h-147v168z" />
    <glyph glyph-name="guilsinglleft" unicode="&#x2039;" horiz-adv-x="684" 
d="M111 514v59l331 349h117l-354 -377l354 -377h-117z" />
    <glyph glyph-name="guilsinglright" unicode="&#x203a;" horiz-adv-x="684" 
d="M573 514l-331 -346h-117l354 375l-356 379h119l331 -349v-59z" />
    <glyph glyph-name="fraction" unicode="&#x2044;" horiz-adv-x="1118" 
d="M113 -6h-93l986 1446h92z" />
    <glyph glyph-name="Euro" unicode="&#x20ac;" horiz-adv-x="1447" 
d="M864 868h-516v-290h516v-89h-514q6 -182 22 -256q16 -73 49 -107q34 -34 146 -34h389q111 0 150 39q53 53 63 318h103q-6 -179 -24 -261t-72 -135q-53 -53 -211 -53h-408q-158 0 -208 51t-71 139q-22 88 -30 299h-148v89h146v290h-146v88h148q8 203 30 289t72 137t207 52
h408q158 0 210 -52t70 -133q18 -80 25 -241h-103q-8 242 -61 295q-39 39 -150 38h-389q-113 1 -147 -33t-48 -105q-15 -71 -22 -247h514v-88z" />
    <glyph glyph-name="published" unicode="&#x2117;" horiz-adv-x="1615" 
d="M231 719q0 -455 123 -582q49 -49 117 -71t205 -23h266q137 0 204 23t116 71q122 123 122 578t-122 581q-49 49 -116 72t-204 23h-266q-137 0 -205 -23t-117 -72q-123 -122 -123 -577zM184 717q0 471 133 608q53 55 127 82t220 27h290q143 0 218 -27t126 -82
q136 -139 136 -608t-136 -608q-51 -55 -126 -82t-218 -27h-290q-146 0 -220 27t-127 82q-133 137 -133 608zM1116 891q0 -139 -45 -191q-37 -37 -125 -36h-254v-273h117v-61h-295v61h115v670h-115v57h432q90 0 125 -37q45 -51 45 -190zM692 721h242q59 1 87 27t28 142
t-31 150q-23 20 -84 21h-242v-340z" />
    <glyph glyph-name="servicemark" unicode="&#x2120;" horiz-adv-x="1961" 
d="M844 645v60h110v671h-110v58h209q27 0 34 -27l244 -688h8l244 688q4 16 11 21t26 6h205v-58h-111v-671h111v-60h-281v60h105v663h-13l-252 -694q-10 -29 -34 -29h-33q-25 0 -35 29l-252 694h-10v-663h102v-60h-278zM702 856q0 -129 -40 -170t-119 -41h-248q-80 0 -108 28
q-29 29 -37 67t-9 134h68q-1 -125 23 -147t77 -22h223q55 -1 79 23t24 122q1 98 -21 120t-86 29l-215 25q-96 12 -128 43q-31 31 -31 159t40 168t117 40h224q79 0 107 -28t36 -65t10 -131h-67q1 116 -23 140t-78 24h-198q-55 0 -79 -24t-24 -119q0 -94 25 -119
q23 -18 86 -27l219 -24q89 -12 121 -44t32 -161z" />
    <glyph glyph-name="trademark" unicode="&#x2122;" horiz-adv-x="2052" 
d="M932 705h110v671h-110v58h209q29 0 37 -27l243 -688h9l243 688q4 16 11 21t24 6h205v-58h-111v-671h111v-60h-279v60h103v663h-13l-249 -694q-10 -29 -37 -29h-31q-27 0 -37 29l-250 694h-12v-663h102v-60h-278v60zM506 702h115v-57h-299v57h116v672h-227v-184h-64v244
h650v-244h-64v184h-227v-672z" />
    <glyph glyph-name="minus" unicode="&#x2212;" horiz-adv-x="1060" 
d="M135 698v90h791v-90h-791z" />
    <glyph glyph-name="aring.alt" horiz-adv-x="1210" 
d="M672 1360h-164q-53 0 -78 -23q-29 -33 -29 -113t27 -105q27 -26 80 -25h164q53 0 80 26q26 26 26 105q0 80 -28 112q-25 23 -78 23zM545 84q84 0 146 27t167 100v321h-381q-88 0 -127 -10t-63 -37q-45 -43 -45 -180t44 -179t144 -42h115zM858 821q0 115 -37 150
q-27 31 -127 30h-196q-119 1 -163 -43t-46 -188h-99q2 109 19 165q34 120 151 144q-36 45 -36 149t42 149q42 46 138 46h172q96 0 138 -44t42 -149t-39 -151q51 -10 86 -45q53 -53 53 -211v-737h185v-86h-283v145q-109 -87 -172 -117t-156 -30h-114q-145 0 -210 64t-65 240
q0 175 68 243t274 67q139 0 375 -16v225z" />
    <glyph glyph-name="aringacute.alt" horiz-adv-x="1210" 
d="M512 1544v10l203 240h155v-10l-276 -240h-82zM672 1360h-164q-53 0 -78 -23q-29 -33 -29 -113t27 -105q27 -26 80 -25h164q53 0 80 26q26 26 26 105q0 80 -28 112q-25 23 -78 23zM545 84q84 0 146 27t167 100v321h-381q-88 0 -127 -10t-63 -37q-45 -43 -45 -180t44 -179
t144 -42h115zM858 821q0 115 -37 150q-27 31 -127 30h-196q-119 1 -163 -43t-46 -188h-99q2 109 19 165q34 120 151 144q-36 45 -36 149t42 149q42 46 138 46h172q96 0 138 -44t42 -149t-39 -151q51 -10 86 -45q53 -53 53 -211v-737h185v-86h-283v145q-109 -87 -172 -117
t-156 -30h-114q-145 0 -210 64t-65 240q0 175 68 243t274 67q139 0 375 -16v225z" />
    <glyph glyph-name="registered.alt" horiz-adv-x="1615" 
d="M231 719q0 -455 123 -582q49 -49 117 -71t205 -23h266q137 0 204 23t116 71q122 123 122 578t-122 581q-49 49 -116 72t-204 23h-266q-137 0 -205 -23t-117 -72q-123 -122 -123 -577zM184 717q0 471 133 608q53 55 127 82t220 27h290q143 0 218 -27t126 -82
q136 -139 136 -608t-136 -608q-51 -55 -126 -82t-218 -27h-290q-146 0 -220 27t-127 82q-133 137 -133 608zM653 741h238q59 0 88 28q29 29 29 135t-33 134q-23 23 -82 23h-240v-320zM1200 391v-61h-129q-29 0 -45 16t-19 150t-30 160q-27 28 -94 28h-230v-295h115v-59h-293
v59h115v672h-115v57h430q90 0 130 -42t40 -173q0 -164 -102 -190v-2q55 -14 77 -50t23 -133q2 -97 8 -137h119z" />
    <glyph glyph-name="hfjslug" horiz-adv-x="1421" 
d="M872 580q-33 0 -32 34q0 12 9 24t23 11q14 0 24 -11t9 -24q0 -34 -33 -34zM997 612h-22v35h22q20 0 21 -16q-1 -19 -21 -19zM659 823q-33 0 -33 45t33 78l41 -80q-16 -43 -41 -43zM645 1056q0 30 29 29q27 -1 27 -35t-31 -69q-25 45 -25 75zM494 662l28 -97h17l22 70h2
l23 -70h16l29 97h-17l-20 -72h-2l-23 72h-14l-23 -72h-2l-20 72h-16zM270 662v-95h17v66l51 -66h14v95h-16v-66l-51 66h-15zM395 662v-95h70v15h-53v26h47v15h-47v24h53v15h-70zM750 567h16v35l37 60h-19l-26 -46l-27 46h-18l37 -60v-35zM872 565q20 1 34 15q33 33 1 68
q-15 16 -35 16t-34 -16t-14 -34q0 -20 14 -34t34 -15zM1034 631q0 31 -35 31h-41v-95h17v31h24l21 -31h18l-24 35q20 8 20 29zM1071 662v-95h16v25l17 16l31 -41h20l-41 54l37 41h-21l-40 -50h-3v50h-16zM729 1047q0 63 -55 63q-25 0 -41 -18q-35 -39 12 -125
q-47 -37 -47 -83q0 -91 59 -89q39 0 60 49h2l24 -49l25 12l-35 65q13 29 27 80l-27 6q-8 -37 -16 -61h-2l-33 64q47 43 47 86zM985 799q63 0 64 73v281h-33v-281q0 -45 -33 -45q-16 0 -41 11v-31q20 -8 43 -8zM377 1153v-352h31v162h96v-162h31v352h-31v-162h-96v162h-31z
M819 1153v-352h31v160h78v28h-78v135h88v29h-119zM1319 -410h-426l-16 29h-334l-17 -29h-424v621q29 0 48 19q18 19 18 46q0 26 -20 46t-46 20v1135h205l62 161h684l59 -161h207v-1887z" />
    <glyph glyph-name="caron.alt" 
d="M465 1475h127v-158q0 -111 -35 -182l-63 -164l-41 14l45 184q6 35 6 53t-6 48l-33 166v39z" />
    <glyph glyph-name="NUL" horiz-adv-x="0" 
 />
    <glyph glyph-name="wiredslug" horiz-adv-x="1843" 
d="M1434 410v819h-205v-819h-205v-205h205v205h205zM1638 0h-1433v1434h1433v-1434zM819 410h-205v-205h205v205zM819 410h205v819h-205v-819zM614 410v819h-204v-819h204z" />
    </font>
</defs>
</svg>
